<?xml version="1.0" encoding="utf-8"?>
<!-- Generator: Adobe Illustrator 23.0.3, SVG Export Plug-In . SVG Version: 6.00 Build 0)  -->
<svg version="1.1" id="Livello_1" xmlns="http://www.w3.org/2000/svg" xmlns:xlink="http://www.w3.org/1999/xlink" x="0px" y="0px"
	 viewBox="0 0 452.5 75.4" style="enable-background:new 0 0 452.5 75.4;" xml:space="preserve">
<style type="text/css">
	.st0{fill:#83D0FF;}
	.st1{fill:#0071BC;}
	.st2{fill:#3598E1;}
	.st3{fill:#FFFFFF;}
</style>
<g>
	<g>
		<path class="st0" d="M304.6,15.9c-2.1-2.3-5.1-4-8.2-4.6c-3.7-0.8-7.9-0.9-11.5,0.4c-3.8,1.3-6.8,4-9,7.4c-1.8,3-3.1,6.5-4,9.9
			c-1.2,4.1-1.6,8.2-1,12.4c1,6.8,5.8,12.9,12,15.6c7.8,3.4,17,1.7,23.1-4.3c1.9-1.8,2-5.2,0-7c-2-1.8-5-1.9-7,0
			c-0.2,0.2-0.5,0.5-0.7,0.7c0,0-0.2,0.1-0.3,0.2c-0.2,0.1-0.5,0.3-0.5,0.3c-0.2,0.1-0.5,0.3-0.7,0.4c-0.4,0.2-0.8,0.4-1.2,0.6
			c-0.1,0-0.2,0.1-0.2,0.1c-0.4,0.1-0.8,0.3-1.2,0.4c-0.3,0.1-0.7,0.2-1,0.2c0,0-0.1,0-0.2,0c-0.2,0-0.7,0.1-0.7,0.1
			c-0.3,0-0.5,0-0.8,0c-0.5,0-1.1,0-1.6-0.1c-0.4-0.1-0.7-0.1-1.1-0.2c-0.3-0.1-0.7-0.2-1-0.3c0,0-0.1,0-0.2-0.1
			c-0.2-0.1-0.7-0.3-0.7-0.3c-0.2-0.1-0.5-0.2-0.7-0.4c-0.5-0.3-0.9-0.6-1.3-0.9c-0.3-0.3-0.6-0.5-0.9-0.8c-0.4-0.4-0.8-0.9-1.2-1.3
			c0,0,0,0,0,0c0,0,0-0.1-0.1-0.1c-0.1-0.2-0.3-0.4-0.4-0.7c-0.3-0.5-0.5-0.9-0.8-1.4c0-0.1-0.1-0.1-0.1-0.1
			c-0.1-0.3-0.2-0.6-0.3-0.9c-0.2-0.6-0.3-1.3-0.5-1.9c0,0,0-0.1,0-0.1c0-0.1,0-0.2,0-0.3c0-0.3,0-0.7,0-1c0-0.7,0-1.3,0.1-2
			c0-0.2,0-0.4,0.1-0.7c0,0,0.1-0.8,0.2-1c0.5-2.7,1.4-5.4,2.4-7.9c0-0.1,0.1-0.3,0.1-0.3c0.2-0.3,0.3-0.6,0.5-1
			c0.3-0.6,0.6-1.1,0.9-1.6c0.1-0.1,0.1-0.2,0.2-0.3c0,0,0.1-0.1,0.1-0.2c0-0.1,0.1-0.1,0.1-0.2c0,0-0.1,0.1-0.1,0.1
			c0,0,0.1-0.1,0.1-0.1c0.4-0.4,0.8-0.8,1.2-1.2c0.1-0.1,0.2-0.2,0.3-0.2c0.3-0.2,0.7-0.4,1-0.5c0,0,0,0,0,0c0.1,0,0.1,0,0.2,0
			c0.3-0.1,0.6-0.2,0.9-0.2c0.3-0.1,0.6-0.1,0.9-0.2c-0.9,0.2-0.2,0,0,0c0.8,0,1.5-0.1,2.3,0c0.3,0,0.6,0,0.9,0.1
			c0.5,0,1.3,0.2,0.4,0c0.5,0.1,1.1,0.2,1.6,0.4c0.1,0,0.5,0.2,0.6,0.3c0,0,0.1,0,0.1,0.1c0.3,0.1,0.5,0.3,0.8,0.4
			c0.1,0.1,0.2,0.1,0.3,0.2c0.4,0.4,0.7,0.9,1.1,1.1c0,0,0,0,0,0c0.2,0.3,0.4,0.5,0.5,0.8c0.1,0.2,0.2,0.4,0.4,0.7
			c0,0.1,0.1,0.2,0.1,0.3c0.1,0.3,0.2,0.5,0.2,0.8c0.1,0.2,0.3,1.7,0.2,0.6c0.3,2.6,2.1,5.1,5,5c2.4-0.1,5.3-2.2,5-5
			C308.6,22.3,307.3,18.8,304.6,15.9z M289.6,48.8C289.1,48.8,289.4,48.8,289.6,48.8L289.6,48.8z M284.8,46.7
			C284.1,46.2,284.6,46.5,284.8,46.7L284.8,46.7z"/>
		<path class="st1" d="M291.2,59.8c-3,0-5.9-0.6-8.7-1.8c-6.6-2.9-11.6-9.3-12.7-16.4c-0.6-4-0.2-8.3,1-12.9
			c1.2-4.3,2.5-7.6,4.2-10.2c2.3-3.8,5.6-6.5,9.5-7.9c3.5-1.2,7.8-1.4,12.1-0.4c3.2,0.7,6.4,2.5,8.7,5c2.7,2.9,4.3,6.5,4.8,11
			c0.2,1.4-0.3,2.7-1.2,3.8c-1.2,1.4-3,2.3-4.8,2.4c-3.2,0.1-5.3-2.4-5.9-5.2c0-0.1-0.1-0.2-0.1-0.3c0-0.1,0-0.2-0.1-0.4
			c0-0.2-0.1-0.4-0.1-0.4c-0.1-0.2-0.1-0.5-0.2-0.7c0-0.1,0-0.1-0.1-0.2l0,0c-0.1-0.1-0.1-0.2-0.2-0.3c0-0.1-0.1-0.2-0.1-0.3
			c-0.1-0.2-0.2-0.4-0.4-0.6c-0.3-0.2-0.5-0.5-0.7-0.7c-0.1-0.1-0.2-0.2-0.3-0.3c-0.1,0-0.1-0.1-0.2-0.1c-0.1-0.1-0.2-0.1-0.3-0.2
			c-0.1-0.1-0.3-0.2-0.4-0.2l0,0c-0.1,0-0.2-0.1-0.3-0.1c-0.1,0-0.2-0.1-0.2-0.1c-0.3-0.1-0.7-0.2-1-0.3c0,0,0,0,0,0
			c-0.1,0-0.4-0.1-0.7-0.1c-0.3,0-0.6,0-0.9-0.1c-0.7,0-1.4,0-2.2,0c0,0-0.2,0-0.3,0.1l0,0c-0.1,0-0.3,0.1-0.4,0.1
			c-0.1,0-0.2,0.1-0.3,0.1c-0.2,0-0.3,0.1-0.5,0.1c0,0-0.1,0-0.1,0c-0.1,0-0.2,0.1-0.3,0.1c-0.2,0.1-0.4,0.2-0.7,0.4
			c0,0-0.1,0.1-0.1,0.1c-0.3,0.3-0.7,0.6-1,1l-0.1,0.1c0,0,0,0,0,0c0,0,0,0,0,0c0,0.1-0.1,0.1-0.1,0.1c0,0,0,0,0,0.1
			c-0.1,0.1-0.1,0.2-0.2,0.3c-0.3,0.5-0.6,1-0.9,1.6c-0.1,0.2-0.2,0.3-0.2,0.5c-0.1,0.2-0.1,0.3-0.2,0.5c0,0.1-0.1,0.2-0.1,0.3
			c-1.1,2.6-1.9,5.2-2.3,7.7c0,0,0,0.2-0.1,0.3c0,0.2-0.1,0.4-0.1,0.5l0,0c0,0.2,0,0.4-0.1,0.6c0,0.6-0.1,1.3-0.1,1.9
			c0,0.2,0,0.3,0,0.5c0,0.2,0,0.3,0,0.5c0,0.1,0,0.1,0,0.2c0,0,0,0,0,0c0,0.2,0.1,0.4,0.1,0.6c0.1,0.4,0.2,0.8,0.3,1.2
			c0.1,0.2,0.2,0.5,0.3,0.8l0,0.1c0.1,0.1,0.1,0.2,0.2,0.3c0.2,0.4,0.4,0.7,0.6,1c0.1,0.1,0.1,0.2,0.2,0.3c0.1,0.1,0.2,0.2,0.2,0.4
			l0,0c0.1,0.2,0.3,0.3,0.4,0.5c0.2,0.3,0.5,0.5,0.7,0.8c0.2,0.2,0.4,0.4,0.6,0.6l0.2,0.1c0.4,0.3,0.8,0.5,1.2,0.8
			c0.2,0.1,0.4,0.2,0.6,0.3l0.1,0c0.1,0.1,0.4,0.2,0.5,0.2l0.1,0c0.3,0.1,0.6,0.2,0.9,0.3c0.3,0.1,0.6,0.1,0.8,0.2l0.1,0
			c0.5,0,1,0.1,1.5,0.1c0.2,0,0.5,0,0.7,0l0.1,0c0.2,0,0.4-0.1,0.6-0.1l0.1,0c0.3-0.1,0.6-0.1,0.9-0.2c0.2-0.1,0.4-0.1,0.6-0.2
			c0.2-0.1,0.4-0.1,0.5-0.2c0,0,0.1,0,0.1,0c0.4-0.2,0.8-0.4,1.1-0.6c0.2-0.1,0.4-0.3,0.7-0.4l0,0c0,0,0.1-0.1,0.1-0.1
			c0.1-0.1,0.2-0.1,0.3-0.2l0,0c0.1-0.1,0.2-0.1,0.2-0.2c0.3-0.2,0.5-0.5,0.7-0.7c2.3-2.3,6-2.3,8.5,0c1.1,1,1.7,2.5,1.8,4.1
			c0,1.7-0.6,3.3-1.7,4.4c-3.1,3.1-7.1,5.1-11.4,5.9C293.9,59.7,292.6,59.8,291.2,59.8z M291.1,11.7c-2.1,0-4.1,0.3-5.9,0.9
			c-3.5,1.2-6.3,3.6-8.4,7c-1.5,2.5-2.7,5.5-3.9,9.7c-1.2,4.3-1.6,8.2-1,12c1,6.4,5.4,12.2,11.4,14.8c7.4,3.2,16.2,1.6,21.9-4.1
			c0.7-0.7,1.1-1.8,1.1-2.9c0-1-0.4-2-1.1-2.6c-1.6-1.5-4-1.5-5.6,0c-0.2,0.2-0.5,0.5-0.8,0.7c0,0-0.2,0.1-0.3,0.2l0,0
			c0,0,0,0-0.1,0c-0.2,0.1-0.4,0.3-0.5,0.3c0,0,0,0,0,0c-0.2,0.2-0.5,0.3-0.7,0.5c-0.4,0.2-0.8,0.4-1.3,0.7c0,0,0,0,0,0
			c-0.1,0.1-0.3,0.1-0.3,0.1c-0.2,0-0.3,0.1-0.5,0.2c-0.2,0.1-0.5,0.2-0.7,0.2c-0.3,0.1-0.7,0.2-1.1,0.3l-0.2,0c0,0-0.1,0-0.1,0
			c-0.1,0-0.4,0-0.6,0.1c-0.1,0-0.2,0-0.2,0c-0.3,0-0.6,0-0.9,0c-0.6,0-1.1,0-1.7-0.1c0,0,0,0-0.1,0c0,0,0,0,0,0c0,0,0,0-0.1,0
			c-0.1,0-0.1,0-0.2,0c0,0,0,0,0,0l0,0c-0.2,0-0.3-0.1-0.5-0.1c-0.1,0-0.3-0.1-0.4-0.1c-0.3-0.1-0.7-0.2-1-0.3l-0.2-0.1
			c0,0-0.1,0-0.1,0c-0.1,0-0.4-0.2-0.5-0.2c-0.1,0-0.2-0.1-0.2-0.1c-0.2-0.1-0.5-0.3-0.8-0.4c-0.5-0.3-0.9-0.6-1.4-0.9c0,0,0,0,0,0
			c-0.1-0.1-0.2-0.1-0.3-0.2c0,0,0,0,0,0l0,0c-0.1-0.1-0.3-0.2-0.4-0.4c-0.1-0.1-0.2-0.2-0.3-0.3c-0.3-0.3-0.6-0.6-0.8-0.9
			c-0.1-0.2-0.3-0.3-0.4-0.5l0,0c-0.1-0.1-0.1-0.1-0.1-0.2l-0.1-0.1c-0.1-0.1-0.1-0.2-0.2-0.3c-0.1-0.1-0.2-0.2-0.2-0.4
			c-0.2-0.4-0.4-0.8-0.6-1.1c-0.1-0.1-0.1-0.2-0.2-0.3l-0.1-0.1c0,0,0-0.1-0.1-0.1c-0.1-0.4-0.2-0.7-0.3-1c-0.2-0.5-0.3-1-0.4-1.4
			c0-0.2-0.1-0.4-0.1-0.5c0,0,0-0.1,0-0.1c0-0.1,0-0.2,0-0.3c0-0.1,0-0.1,0-0.2c0-0.1,0-0.3,0-0.4c0-0.2,0-0.4,0-0.6
			c0-0.7,0-1.4,0.1-2.1c0-0.2,0-0.5,0.1-0.7c0-0.1,0-0.1,0-0.2c0-0.1,0.1-0.3,0.1-0.5c0-0.2,0.1-0.3,0.1-0.4
			c0.5-2.6,1.3-5.4,2.5-8.1c0,0,0,0,0,0c0.1-0.1,0.1-0.3,0.2-0.4c0.1-0.1,0.1-0.3,0.2-0.4c0.1-0.2,0.2-0.4,0.3-0.6
			c0.3-0.6,0.7-1.2,1-1.7c0.1-0.1,0.1-0.2,0.2-0.3c0-0.1,0.1-0.2,0.2-0.2l0,0c0,0,0-0.1,0.1-0.1l0,0c0.1-0.1,0.1-0.2,0.2-0.3
			c0.4-0.4,0.7-0.8,1.1-1.1c0,0,0.1-0.1,0.1-0.1l0,0c0.2-0.1,0.3-0.2,0.4-0.2c0.2-0.1,0.4-0.2,0.6-0.3c0.1-0.1,0.3-0.1,0.4-0.2
			c0.1-0.1,0.2-0.1,0.3-0.1c0.1,0,0.1,0,0.2,0c0.1,0,0.3-0.1,0.4-0.1c0.2,0,0.3-0.1,0.5-0.1c0.1,0,0.3-0.1,0.4-0.1
			c0.1,0,0.3-0.1,0.4-0.1l0.1,0l0,0c0.1,0,0.2,0,0.3,0c0.8,0,1.5-0.1,2.2,0c0.3,0,0.6,0,1,0.1c0.1,0,0.1,0,0.2,0c0.1,0,0.2,0,0.3,0
			l0.2,0.1c0.5,0.1,1,0.2,1.5,0.4c0.1,0,0.2,0.1,0.4,0.2c0.1,0,0.2,0.1,0.2,0.1c0.1,0,0.1,0,0.2,0.1l0.1,0c0.2,0.1,0.3,0.2,0.5,0.3
			c0.1,0.1,0.2,0.1,0.3,0.2c0.1,0.1,0.2,0.1,0.2,0.1c0.1,0,0.2,0.1,0.3,0.2c0.2,0.2,0.4,0.4,0.6,0.6c0.1,0.2,0.3,0.3,0.4,0.4
			c0,0,0,0,0,0c0.1,0.1,0.2,0.2,0.3,0.3l0.1,0.1c0.2,0.2,0.3,0.5,0.5,0.7c0.1,0.1,0.1,0.2,0.2,0.4c0.1,0.1,0.1,0.2,0.2,0.3
			c0,0.1,0.1,0.1,0.1,0.2l0,0.1c0,0.1,0.1,0.2,0.1,0.2c0.1,0.3,0.2,0.6,0.2,0.8c0,0.1,0,0.2,0.1,0.3c0.1,0.1,0.1,0.2,0.1,0.4
			c0,0,0,0,0,0c0.2,2,1.6,4.1,3.9,4c1.2-0.1,2.5-0.7,3.2-1.6c0.4-0.5,0.8-1.2,0.7-2.2c-0.5-4.1-1.8-7.2-4.2-9.8
			c-2-2.1-4.8-3.7-7.6-4.3C294.5,11.9,292.8,11.7,291.1,11.7z M287.2,22.6C287.2,22.6,287.2,22.6,287.2,22.6
			C287.1,22.6,287.2,22.6,287.2,22.6z M294.6,22.1C294.6,22.1,294.6,22.1,294.6,22.1C294.6,22.1,294.6,22.1,294.6,22.1z M295.9,20.4
			C295.9,20.4,295.9,20.4,295.9,20.4C295.9,20.4,295.9,20.4,295.9,20.4z"/>
	</g>
	<g>
		<path class="st0" d="M326.4,21.3c-3.8-0.2-7.5,0.8-10.2,3.6c-2.1,2.2-3.4,4.9-4.4,7.7c-0.4,0.5-0.6,1-0.8,1.7
			c-1.8,7.1,3.7,13.6,9.3,17.2c6,3.9,14,1.2,19-3c5.1-4.2,7.1-11.6,4.2-17.6C340.6,24.6,332.7,21.7,326.4,21.3z M326.4,43.3
			C326.5,43.3,326.5,43.3,326.4,43.3L326.4,43.3z M334.8,37.8c-0.1,0.2-0.1,0.4-0.2,0.6c0,0,0,0.1,0,0.1c-0.1,0.2-0.4,0.8-0.5,1
			c-0.1,0.2-0.2,0.3-0.3,0.5c0,0-0.1,0.1-0.2,0.2c-0.3,0.3-0.6,0.6-0.9,0.9c0,0,0,0-0.1,0.1c-0.1,0.1-0.3,0.2-0.4,0.3
			c-0.3,0.2-0.7,0.5-1.1,0.7c-0.2,0.1-0.4,0.2-0.6,0.3c0,0-0.5,0.2-0.7,0.3c0,0-0.1,0-0.1,0c-0.2,0.1-0.4,0.1-0.6,0.2
			c-0.5,0.2-1.1,0.3-1.6,0.4c0,0-0.1,0-0.3,0c-0.1,0-0.3,0-0.3,0c-0.2,0-0.5,0-0.7,0c-0.1,0-0.1,0-0.3-0.1c0,0-0.1,0-0.2-0.1
			c-0.2-0.1-0.6-0.4-0.7-0.4c0,0-0.1-0.1-0.2-0.1c-0.1-0.1-0.3-0.3-0.4-0.3c-0.8-0.7-1.7-1.5-2.5-2.3c-0.1-0.1-1-1.1-0.8-0.9
			c-0.3-0.4-0.5-0.8-0.7-1.2c0.2,0.3,0-0.2-0.1-0.5c0-0.1,0-0.3-0.1-0.4c0.2-0.3,0.3-0.6,0.5-1c0.1-0.4,0.3-0.8,0.4-1.1
			c0.1-0.1,0.1-0.3,0.2-0.4c0.4-0.8,0.9-1.6,1.3-2.3c0.1-0.1,0.2-0.2,0.3-0.4c0.1-0.1,0.2-0.2,0.3-0.3c0.2-0.1,0.3-0.2,0.5-0.3
			c0,0,0,0,0.1,0c0.1,0,0.3-0.1,0.3-0.1c0.1,0,0.2,0,0.3,0c0.4,0,0.9,0,1.3,0c0.2,0,1.2,0.1,1.1,0.1c1,0.2,2,0.5,3,0.8
			c0,0,0.2,0.1,0.3,0.1c0.1,0.1,0.3,0.1,0.3,0.1c0.5,0.2,1,0.5,1.5,0.8c0.4,0.2,0.8,0.5,1.2,0.7c0,0,0,0,0.1,0c0,0,0,0,0,0
			c0.2,0.2,0.4,0.4,0.7,0.6c0.1,0.1,0.2,0.2,0.3,0.3c0,0.1,0.1,0.1,0.2,0.3c0.1,0.1,0.1,0.2,0.1,0.2c0,0,0,0.1,0,0.1
			c0.1,0.2,0.1,0.4,0.2,0.6c0,0.1,0,0.3,0.1,0.4c0,0,0,0.1,0,0.1c0,0.3,0,0.5,0,0.8c0,0,0,0,0-0.1c0,0,0,0.1,0,0.1
			c0,0.2-0.1,0.4-0.1,0.4C334.8,37.7,334.8,37.8,334.8,37.8z"/>
		<path class="st1" d="M326.8,54.3c-2.7,0-5.1-0.7-7.2-2c-6-3.9-11.7-10.8-9.7-18.4c0.2-0.7,0.5-1.3,0.9-1.9
			c1.1-2.8,2.4-5.6,4.6-7.9c2.8-2.8,6.7-4.2,11.1-3.9c3.5,0.2,7.2,1.2,10.2,2.7c3.6,1.8,6.3,4.4,7.7,7.4c3,6.3,1.1,14.3-4.5,18.9
			c-2.8,2.3-6.2,4-9.6,4.7C329.1,54.2,327.9,54.3,326.8,54.3z M325.4,22.3c-3.4,0-6.3,1.2-8.4,3.3c-1.9,1.9-3,4.3-4.2,7.3
			c0,0.1-0.1,0.2-0.1,0.3c-0.3,0.4-0.5,0.8-0.6,1.3c-1.7,6.5,3.5,12.6,8.8,16.1c1.8,1.2,3.9,1.7,6,1.7c4.2,0,8.6-2,11.8-4.6
			c4.9-4,6.6-10.9,4-16.4c-2.7-5.6-10-8.5-16.2-8.9l0,0C326,22.3,325.7,22.3,325.4,22.3z M327,44.4C327,44.4,327,44.4,327,44.4
			c-0.1,0-0.3,0-0.4,0c0,0,0,0-0.1,0c-0.1,0-0.2,0-0.3,0c0,0,0,0-0.1,0c0,0,0,0-0.1,0c-0.1,0-0.2,0-0.3-0.1c0,0-0.1,0-0.2,0l-0.1,0
			c-0.1,0-0.2-0.1-0.2-0.1c0,0-0.2-0.1-0.6-0.3c0,0-0.1,0-0.1,0c0,0,0,0,0,0c0,0-0.1-0.1-0.2-0.2c0,0,0,0-0.1-0.1
			c-0.1-0.1-0.2-0.2-0.3-0.2c-0.1,0-0.1-0.1-0.1-0.1c-0.8-0.7-1.7-1.5-2.5-2.4c0-0.1-0.2-0.2-0.3-0.4c-0.1-0.1-0.3-0.3-0.4-0.4
			c-0.1-0.1-0.2-0.2-0.2-0.3c-0.3-0.4-0.5-0.8-0.8-1.3c-0.1-0.1-0.1-0.3-0.1-0.4c0,0,0-0.1,0-0.1c0-0.1-0.1-0.2-0.1-0.3
			c0-0.1,0-0.3,0-0.3c0-0.2,0-0.5,0.1-0.7c0.2-0.3,0.3-0.6,0.4-0.8c0.1-0.2,0.2-0.5,0.3-0.7c0.1-0.2,0.1-0.3,0.2-0.5c0,0,0,0,0-0.1
			l0.1-0.1c0-0.1,0.1-0.2,0.1-0.3c0.3-0.6,0.6-1.2,1-1.8c0.1-0.2,0.3-0.4,0.4-0.6c0-0.1,0.1-0.1,0.1-0.2c0,0,0.1-0.1,0.1-0.1
			c0.1-0.1,0.1-0.2,0.2-0.2c0.1-0.1,0.2-0.1,0.2-0.2l0.1-0.1c0.1-0.1,0.1-0.1,0.2-0.1c0.1,0,0.1-0.1,0.2-0.1
			c0.1-0.1,0.2-0.1,0.3-0.2c0,0,0.1-0.1,0.2-0.1c0.1,0,0.1-0.1,0.2-0.1l0.2,0c0.1,0,0.2,0,0.2,0c0.1,0,0.2,0,0.2,0
			c0.1,0,0.2,0,0.3,0c0.2,0,0.4,0,0.6,0c0.2,0,0.5,0,0.7,0c0.1,0,0.3,0,0.6,0.1c0.1,0,0.3,0,0.4,0c0.1,0,0.2,0,0.2,0
			c1,0.2,1.9,0.4,3.2,0.8l0.3,0.1c0,0,0,0,0.1,0l0.2,0.1c0.1,0,0.2,0.1,0.2,0.1c0.6,0.3,1.1,0.5,1.6,0.8c0.2,0.1,0.4,0.3,0.6,0.4
			c0.2,0.1,0.4,0.2,0.5,0.3c0,0,0,0,0,0c0.1,0.1,0.2,0.1,0.3,0.2l0,0c0.1,0.1,0.2,0.2,0.3,0.2c0.1,0.1,0.3,0.2,0.4,0.4
			c0.1,0.1,0.2,0.2,0.3,0.3c0.1,0.1,0.1,0.1,0.1,0.2c0,0.1,0.1,0.1,0.1,0.3c0,0.1,0,0.1,0.1,0.1c0.1,0.1,0.1,0.2,0.2,0.4l0.1,0.2
			c0,0.2,0.1,0.3,0.1,0.5c0,0.1,0,0.3,0.1,0.5l0,0.1c0,0,0,0.1,0,0.1c0,0,0,0.1,0,0.1c0,0.2,0,0.3,0,0.5c0,0,0,0,0,0.1
			c0,0.1,0,0.3,0,0.4c0,0.1,0,0.4-0.1,0.6c0,0,0,0,0,0.1c0,0.1-0.1,0.3-0.1,0.4c0,0.1,0,0.1-0.1,0.2c0,0,0,0.1-0.1,0.2
			c0,0.1-0.1,0.1-0.1,0.2c0,0.1-0.2,0.3-0.2,0.4c-0.2,0.3-0.2,0.4-0.3,0.5c-0.1,0.1-0.1,0.2-0.2,0.3c0,0.1-0.1,0.1-0.1,0.2
			c0,0.1-0.1,0.1-0.2,0.2c0,0-0.1,0.1-0.1,0.1l-0.1,0.1c-0.3,0.3-0.5,0.5-0.8,0.8c0,0-0.1,0.1-0.1,0.1c0,0,0,0-0.1,0.1l-0.1,0.1
			c-0.1,0.1-0.3,0.2-0.3,0.2c-0.4,0.2-0.7,0.5-1.1,0.7c-0.2,0.1-0.4,0.2-0.6,0.3l0,0c0,0,0,0-0.1,0c-0.1,0-0.5,0.2-0.6,0.3
			c0,0-0.1,0-0.1,0c0,0-0.1,0-0.1,0c-0.1,0-0.2,0.1-0.2,0.1c-0.1,0-0.3,0.1-0.4,0.1c-0.5,0.2-1.1,0.3-1.7,0.4c-0.1,0-0.1,0-0.3,0
			l0,0c0,0-0.1,0-0.1,0l-0.2,0C327.1,44.4,327.1,44.4,327,44.4z M326.4,42.2c0.1,0,0.2,0,0.3,0c0.1,0,0.3,0,0.4,0l0.2,0
			c0.1,0,0.1,0,0.2,0c0.5-0.1,1-0.2,1.5-0.4c0.1,0,0.2-0.1,0.3-0.1c0.1,0,0.2-0.1,0.2-0.1c0.2-0.1,0.5-0.2,0.6-0.3l0,0
			c0.2-0.1,0.3-0.2,0.5-0.3c0.3-0.2,0.7-0.4,1-0.6c0,0,0.1-0.1,0.2-0.2l0.1-0.1c0.2-0.2,0.5-0.5,0.7-0.7l0.1-0.1
			c0,0,0.1-0.1,0.1-0.1c0,0,0-0.1,0.1-0.1c0.1-0.1,0.1-0.2,0.2-0.2c0-0.1,0.1-0.3,0.2-0.4c0.1-0.2,0.2-0.3,0.2-0.4
			c0-0.1,0-0.1,0.1-0.2c0-0.1,0.1-0.2,0.1-0.3c0,0,0,0,0,0l0-0.1c0-0.1,0-0.1,0.1-0.2c0,0,0,0,0,0c0,0,0,0,0,0l0-0.3
			c0-0.2,0-0.3,0-0.5l0,0c0-0.1,0-0.2,0-0.3c0-0.1-0.1-0.3-0.1-0.4l0-0.1c0,0-0.1-0.1-0.1-0.1c0-0.1-0.1-0.1-0.1-0.2
			c-0.1-0.1-0.1-0.1-0.2-0.2c-0.1-0.1-0.2-0.2-0.3-0.3c-0.1-0.1-0.2-0.2-0.3-0.2c-0.2-0.1-0.4-0.3-0.6-0.4c-0.2-0.1-0.3-0.2-0.5-0.3
			c-0.4-0.2-0.9-0.5-1.4-0.7l-0.3-0.1l-0.3-0.1c-1.1-0.4-2-0.6-2.8-0.8c-0.2,0-0.4,0-0.5,0c-0.2,0-0.4,0-0.5,0c-0.2,0-0.4,0-0.6,0
			c-0.2,0-0.4,0-0.6,0c0,0-0.1,0-0.2,0l-0.1,0c0,0-0.1,0-0.1,0.1c-0.1,0-0.1,0.1-0.2,0.1l0,0c-0.1,0-0.1,0.1-0.2,0.1
			c0,0-0.1,0.1-0.1,0.2c0,0-0.1,0.1-0.1,0.1c-0.1,0.2-0.2,0.4-0.3,0.6c-0.3,0.5-0.6,1.1-0.9,1.6c0,0.1-0.1,0.2-0.1,0.3l0,0.1
			c-0.1,0.1-0.1,0.3-0.2,0.4c-0.1,0.2-0.2,0.4-0.3,0.7c-0.1,0.3-0.2,0.5-0.4,0.8c0.1,0.1,0.1,0.3,0.2,0.5c0.1,0.2,0.3,0.5,0.4,0.7
			c0.1,0.1,0.1,0.1,0.2,0.2c0.1,0.1,0.2,0.3,0.4,0.4c0.1,0.1,0.2,0.2,0.3,0.3c0.7,0.7,1.5,1.4,2.4,2.3l0.1,0.1
			c0.1,0.1,0.2,0.2,0.3,0.2c0,0,0,0,0,0c0.2,0.1,0.4,0.2,0.5,0.3L326.4,42.2C326.4,42.2,326.4,42.2,326.4,42.2z M322.2,38.6
			C322.2,38.6,322.2,38.6,322.2,38.6C322.2,38.6,322.2,38.6,322.2,38.6z M334.6,38.4L334.6,38.4L334.6,38.4z"/>
	</g>
	<g>
		<path class="st0" d="M246.7,16.5c2.6,0,5.1-2.3,5-5c-0.1-2.7-2.2-5-5-5c-2.6,0-5.1,2.3-5,5C241.9,14.2,244,16.5,246.7,16.5z"/>
		<path class="st1" d="M246.7,17.5c-3.2,0-5.9-2.6-6-6c-0.1-1.5,0.5-3,1.6-4.1c1.2-1.2,2.8-1.9,4.4-1.9c3.2,0,5.9,2.6,6,6
			c0.1,1.5-0.5,3-1.6,4.1C250,16.8,248.4,17.5,246.7,17.5z M246.7,7.6c-1,0-2.1,0.5-2.9,1.3c-0.7,0.7-1.1,1.7-1,2.6
			c0.1,2.3,1.8,3.9,3.9,3.9c1,0,2.1-0.5,2.9-1.3c0.7-0.7,1.1-1.7,1-2.6C250.5,9.3,248.9,7.6,246.7,7.6z"/>
	</g>
	<g>
		<path class="st0" d="M191.6,20.6c2.6,0,5.1-2.3,5-5c-0.1-2.7-2.2-5-5-5c-2.6,0-5.1,2.3-5,5C186.7,18.3,188.8,20.6,191.6,20.6z"/>
		<path class="st1" d="M191.6,21.6c-3.2,0-5.9-2.6-6-6c-0.1-1.5,0.5-3,1.6-4.1c1.2-1.2,2.8-1.9,4.4-1.9c3.2,0,5.9,2.6,6,6
			c0.1,1.5-0.5,3-1.6,4.1C194.8,20.9,193.2,21.6,191.6,21.6z M191.6,11.7c-1,0-2.1,0.5-2.9,1.3c-0.7,0.7-1.1,1.7-1,2.6
			c0.1,2.3,1.8,3.9,3.9,3.9c1,0,2.1-0.5,2.9-1.3c0.7-0.7,1.1-1.7,1-2.6C195.4,13.4,193.7,11.7,191.6,11.7z"/>
	</g>
	<g>
		<path class="st0" d="M198.6,25.8c-3.6,0-7.1,0-10.7,0c-2.6,0-5.1,2.3-5,5c0.1,2.7,2.2,5,5,5c0,0,0,0,0,0c0.1,0.6,0.2,1.2,0.3,1.7
			c0.7,5.3,1.4,10.5,2.1,15.8c0.3,2.6,2,5.1,5,5c2.4-0.1,5.3-2.2,5-5c-0.5-3.5-0.9-7.1-1.4-10.6c-0.2-1.7-0.5-3.4-0.7-5.2
			c-0.1-0.6-0.1-1.1-0.2-1.7c0.2,0,0.3,0,0.5-0.1c0.1,0,0.1,0,0.2,0c0,0,0,0,0,0c0.5,0,0.9-0.1,1.3-0.2c2.4-0.3,3.8-3.3,3.6-5.4
			C203.2,27.7,201.1,25.8,198.6,25.8z"/>
		<path class="st1" d="M195,59.2c-3.4,0-5.4-3-5.8-5.9l-2.1-15.8c0-0.3-0.1-0.6-0.1-0.9c-2.8-0.4-5-2.9-5.1-5.9
			c-0.1-1.5,0.5-3,1.6-4.1c1.2-1.2,2.8-1.9,4.4-1.9l10.7,0l0,0c0,0,0,0,0,0c3,0,5.5,2.2,5.9,5.2c0.4,2.8-1.5,6.2-4.5,6.6
			c-0.3,0-0.6,0.1-1,0.1l2.1,16.4c0.2,1.3-0.2,2.6-1.2,3.8c-1.2,1.4-3,2.3-4.8,2.4C195.2,59.2,195.1,59.2,195,59.2z M187.9,34.6
			L187.9,34.6c0.6,0,1,0.4,1.1,0.9l0.1,0.4c0.1,0.5,0.1,0.9,0.2,1.4l2.1,15.8c0.3,2.1,1.6,4.1,3.9,4c1.2-0.1,2.5-0.7,3.3-1.6
			c0.4-0.5,0.8-1.2,0.7-2.1l-2.3-17.4c0-0.3,0-0.6,0.2-0.8c0.2-0.2,0.4-0.4,0.7-0.4l0.5-0.1c0,0,0.1,0,0.1,0h0c0,0,0.1,0,0.1,0
			c0.5,0,0.9-0.1,1.3-0.1c1.4-0.2,2.9-2.1,2.7-4.3c-0.3-1.9-1.9-3.4-3.8-3.4c0,0,0,0,0,0l-10.7,0c-1,0-2.1,0.5-2.9,1.3
			c-0.7,0.7-1.1,1.7-1,2.6C184.1,32.9,185.8,34.6,187.9,34.6C187.9,34.6,187.9,34.6,187.9,34.6z"/>
	</g>
	<g>
		<path class="st0" d="M239.2,57.9c-0.1-1.1-0.1-2.3-0.1-3.4c0-2.3,0-4.6-0.3-6.8c-0.5-4.8-1.8-9.4-5.1-13.2
			c-2.8-3.2-7.3-5.5-11.6-5.1c-1.1,0.1-2.1,0.3-3.2,0.7c0-0.4,0-0.8,0-1.1c0-2.6-2.3-5.1-5-5c-2.7,0.1-4.9,2.2-5,5
			c-0.1,9.8-0.1,19.6,0.1,29.3c0.1,2.6,2.2,5.1,5,5c2.6-0.1,5-2.2,5-5c-0.1-5.1-0.2-10.1-0.2-15.2c0.9-0.6,1.7-1.6,2-2.8
			c0,0,0,0,0-0.1c0,0,0-0.1,0.1-0.1c0,0,0-0.1,0.1-0.1c0,0,0,0,0,0c0,0,0.2-0.2,0.3-0.3c0.2-0.1,0.5-0.3,0.5-0.3c0,0,0,0,0,0
			c0,0,0.5-0.1,0.8-0.2c0.1,0,0.3,0,0.4,0c0,0,0,0,0.1,0c0.3,0.1,0.6,0.2,0.9,0.2c0.1,0,0.1,0,0.1,0c0,0,0.1,0.1,0.2,0.1
			c0.2,0.2,0.5,0.3,0.7,0.5c0,0,0.4,0.3,0.6,0.5c0.2,0.2,0.5,0.5,0.7,0.8c0,0,0.1,0,0.1,0.1c0,0,0,0.1,0.1,0.1
			c0.4,0.7,0.8,1.3,1.2,2.1c0,0.1,0.1,0.4,0.2,0.6c0.1,0.4,0.3,0.9,0.4,1.4c0.1,0.4,0.2,0.8,0.3,1.2c0,0.1,0.2,1,0.2,0.9
			c0.2,1.7,0.2,3.4,0.3,5.1c0,1.9,0,3.8,0.2,5.7c0.2,2.4,0.5,5.1,2.5,6.8c2,1.6,5.1,2.1,7,0c1.5-1.7,2.1-4.9,0.4-6.7
			C239.2,58.3,239.2,58.1,239.2,57.9z M239.3,59.1c0,0.1,0,0.2,0,0.3C239.3,59.3,239.3,59.2,239.3,59.1
			C239.3,59.1,239.3,59.1,239.3,59.1z"/>
		<path class="st1" d="M235.7,67.6c-1.6,0-3.2-0.6-4.5-1.6c-2.3-1.8-2.7-4.7-2.9-7.5c-0.1-1.5-0.1-3.1-0.2-4.6c0-0.4,0-0.8,0-1.2
			c0-1.7-0.1-3.4-0.3-5l0,0c0-0.1,0-0.1,0-0.2c0-0.2-0.1-0.3-0.1-0.5l0-0.1c-0.1-0.4-0.2-0.7-0.2-1.1c-0.1-0.4-0.2-0.9-0.4-1.3
			c0-0.1-0.1-0.2-0.1-0.3c0-0.1-0.1-0.2-0.1-0.3c-0.3-0.7-0.7-1.3-1-1.8c-0.2-0.2-0.3-0.3-0.5-0.5c-0.1-0.1-0.2-0.2-0.3-0.3
			c-0.1-0.1-0.3-0.2-0.4-0.3c0,0-0.1,0-0.1-0.1c-0.2-0.1-0.3-0.2-0.5-0.3l-0.2-0.1c0,0,0,0-0.1,0l-0.2,0c-0.2-0.1-0.4-0.1-0.6-0.2
			c-0.1,0-0.1,0-0.2,0c-0.2,0-0.4,0.1-0.5,0.1c0,0,0,0,0,0c-0.1,0.1-0.2,0.1-0.4,0.2l-0.1,0.1c0,0,0,0,0,0c-0.4,1.2-1.1,2.1-2,2.9
			c0,4.9,0.1,9.8,0.2,14.6c0.1,3.2-2.6,5.9-6,6c-1.5,0.1-2.9-0.5-4-1.5c-1.2-1.2-2-2.8-2-4.4c-0.2-9.8-0.3-19.6-0.1-29.4
			c0-3.3,2.6-5.8,6-6c1.5-0.1,3,0.5,4.2,1.7c1.1,1.1,1.8,2.6,1.9,4.1c0.6-0.2,1.3-0.3,2-0.3c4.4-0.4,9.2,1.6,12.5,5.4
			c3,3.5,4.7,7.8,5.3,13.8c0.2,2.1,0.3,4.1,0.3,6.2l0,0.8c0,1.1,0,2.2,0.1,3.3c0,0,0,0,0,0c0,0.1,0,0.2,0,0.3c0.8,1,1.2,2.4,1,3.9
			c-0.1,1.5-0.8,2.9-1.7,3.9C238.5,67.1,237.1,67.6,235.7,67.6z M229.9,47.2c0,0.1,0,0.1,0,0.2c0.2,1.8,0.3,3.5,0.3,5.2
			c0,0.4,0,0.8,0,1.2c0,1.5,0,3,0.1,4.5c0.2,2.4,0.5,4.7,2.1,6c1.6,1.3,4,1.8,5.6,0.1c1.1-1.2,1.4-2.8,1-4c-0.4-0.1-0.7-0.4-0.8-0.8
			c0-0.1-0.1-0.3-0.1-0.5c0-0.1,0-0.3,0-0.4c0-0.1-0.1-0.2-0.1-0.3l0-0.2c0-0.1,0-0.3,0-0.4c-0.1-1.2-0.1-2.3-0.1-3.4l0-0.8
			c0-2-0.1-4-0.3-6c-0.6-5.5-2.1-9.5-4.8-12.6c-2.8-3.2-7-5.1-10.7-4.7c-1,0.1-2,0.3-2.9,0.6c-0.3,0.1-0.7,0.1-1-0.1
			c-0.3-0.2-0.4-0.5-0.4-0.9l0-1.1c0-1-0.4-2-1.2-2.8c-0.7-0.7-1.7-1.1-2.6-1.1c-2.2,0.1-3.9,1.8-3.9,3.9
			c-0.1,9.7-0.1,19.6,0.1,29.3c0,1.1,0.5,2.2,1.3,2.9c0.7,0.7,1.6,1,2.5,1c1.9-0.1,4-1.6,3.9-3.9c-0.1-5-0.2-10.1-0.2-15.2
			c0-0.4,0.2-0.7,0.5-0.9c0.8-0.5,1.3-1.3,1.6-2.2l0-0.1c0-0.1,0.1-0.2,0.1-0.2l0-0.1c0,0,0-0.1,0-0.1c0.1-0.1,0.1-0.2,0.2-0.3
			c0,0,0,0,0,0c0,0,0.1-0.1,0.2-0.2l0.2-0.1c0.1,0,0.1-0.1,0.2-0.1c0.2-0.1,0.3-0.2,0.4-0.2c0.1-0.1,0.3-0.2,0.4-0.2c0,0,0,0,0,0
			c0,0,0.1,0,0.2,0c0.2,0,0.4-0.1,0.6-0.2c0.1,0,0.1,0,0.2,0c0.1,0,0.3,0,0.4,0l0,0c0.1,0,0.3,0,0.4,0c0.2,0.1,0.5,0.1,0.7,0.2
			l0.2,0c0,0,0.1,0,0.1,0c0.1,0,0.3,0.1,0.4,0.2c0,0,0.1,0,0.1,0.1l0.2,0.1c0.2,0.1,0.4,0.2,0.6,0.4c0,0,0.1,0.1,0.1,0.1l0.1,0
			c0.2,0.1,0.4,0.3,0.6,0.5c0.1,0.1,0.3,0.3,0.4,0.4c0.1,0.1,0.2,0.2,0.3,0.3c0.1,0.1,0.2,0.2,0.3,0.3l0,0.1
			c0.4,0.6,0.9,1.4,1.2,2.2c0,0.1,0,0.1,0.1,0.2c0,0.1,0,0.1,0.1,0.2c0,0.1,0.1,0.2,0.1,0.3c0.1,0.5,0.3,0.9,0.4,1.4
			c0.1,0.4,0.2,0.8,0.3,1.2c0,0,0,0.1,0,0.2C229.8,46.8,229.9,47.1,229.9,47.2z M228.9,43.3C228.9,43.3,228.9,43.3,228.9,43.3
			C228.9,43.3,228.9,43.3,228.9,43.3z M227.3,40.5C227.3,40.5,227.3,40.5,227.3,40.5C227.3,40.5,227.3,40.5,227.3,40.5z M221.3,38.6
			C221.3,38.7,221.2,38.7,221.3,38.6C221.3,38.7,221.3,38.7,221.3,38.6z"/>
	</g>
	<g>
		<path class="st0" d="M259.2,26.4c-0.1-2.7-2.2-5-5-5c-3.7,0-7.5,0-11.2,0c-2.6,0-5.1,2.3-5,5c0.1,2.7,2.2,5,5,5c0.7,0,1.4,0,2.1,0
			c-0.4,8.3,0.8,16.7,3.5,24.5c0.9,2.4,3.4,4.3,6.1,3.5c2.4-0.8,4.4-3.5,3.5-6.1c-0.8-2.2-1.4-4.5-2-6.8c-0.2-1-0.4-2-0.6-3
			c0-0.1-0.2-1.4-0.2-1.4c-0.1-0.4-0.1-0.9-0.1-1.3c-0.3-3.2-0.4-6.3-0.2-9.5C257.3,30.9,259.3,28.8,259.2,26.4z"/>
		<path class="st1" d="M253.4,60.6c-2.7,0-5-2-5.8-4.4c-2.6-7.6-3.9-15.8-3.6-23.8h-1c-3.2,0-5.9-2.6-6-6c-0.1-1.5,0.5-3,1.6-4.1
			c1.2-1.2,2.8-1.9,4.4-1.9h11.2c3.2,0,5.9,2.6,6,6l0,0c0.1,2.6-1.7,4.9-4.2,5.8c-0.1,2.9,0,5.8,0.3,8.6c0,0.5,0.1,0.9,0.1,1.3l0,0
			c0,0.1,0,0.2,0.1,0.3c0,0.2,0.1,0.4,0.1,0.7c0,0.2,0.1,0.4,0.1,0.4c0.2,1,0.4,2,0.6,2.9c0.5,2.2,1.1,4.4,1.9,6.7
			c0.5,1.3,0.4,2.8-0.3,4.1c-0.8,1.5-2.2,2.8-3.8,3.3C254.4,60.5,253.9,60.6,253.4,60.6z M243,22.5c-1,0-2.1,0.5-2.9,1.3
			c-0.7,0.7-1.1,1.7-1,2.6c0.1,2.3,1.8,3.9,3.9,3.9h2.1c0.3,0,0.6,0.1,0.8,0.3c0.2,0.2,0.3,0.5,0.3,0.8c-0.4,8.1,0.8,16.5,3.4,24.1
			c0.7,1.9,2.7,3.5,4.8,2.8c1.1-0.4,2.1-1.2,2.6-2.2c0.3-0.6,0.6-1.5,0.2-2.5c-0.8-2.3-1.5-4.7-2-6.9c-0.2-1-0.4-2-0.6-3
			c0,0,0-0.2-0.1-0.4c0-0.3-0.1-0.8-0.1-0.9c0,0,0-0.1,0-0.1c-0.1-0.4-0.1-0.8-0.2-1.3c-0.3-3.1-0.4-6.4-0.2-9.7
			c0-0.5,0.4-0.9,0.9-1c1.9-0.3,3.4-2,3.3-3.8l0,0c-0.1-2.3-1.8-3.9-3.9-3.9H243z M255,43c0.1,0,0.2,0.1,0.3,0.1
			C255.2,43.1,255.1,43.1,255,43z M254.3,42.3C254.4,42.4,254.4,42.4,254.3,42.3C254.4,42.4,254.4,42.4,254.3,42.3z"/>
	</g>
	<g>
		<path class="st0" d="M368.1,14.6c-3.4-1.9-7.3-2.7-11.1-2.4c-0.5-0.2-1-0.3-1.6-0.2c-1.4,0.1-2.7,0.7-3.7,1.7
			c-1.5,1.2-2.4,3.3-1.8,5.2c0.1,0.4,0.3,0.7,0.5,1.1c0,9.1,0,18.3,0,27.4c0,0.9,0.3,1.9,0.8,2.6c-0.3,1.3-0.1,2.6,0.5,3.7
			c1.6,2.4,4.3,3,6.8,1.8c4-1.9,8.4-3.5,11.9-6.3c3.4-2.8,5.3-7.4,6.4-11.5C379.4,28.9,376.2,19.1,368.1,14.6z M367.9,32.7
			c0,0.1,0,0.1,0,0.1c-0.1,0.3-0.1,0.6-0.2,1c-0.2,1-0.5,1.9-0.8,2.8c0,0.1-0.5,1.4-0.5,1.3c-0.2,0.4-0.3,0.7-0.5,1
			c-0.2,0.4-0.4,0.8-0.7,1.2c-0.2,0.3-0.3,0.5-0.5,0.8c0.3-0.4,0.3-0.4-0.1,0.1c-0.2,0.3-0.5,0.5-0.7,0.7c0.1-0.1-0.6,0.4-0.7,0.5
			c-0.9,0.5-1.8,1-2.8,1.4c0-7.1,0-14.3,0-21.4c0.4,0.1,0.8,0.2,1.1,0.3c0.2,0.1,0.5,0.2,0.7,0.2c0.7,0.4,1.3,0.7,2,1.1
			c-0.1,0,0.7,0.6,0.8,0.7c0.4,0.4,0.7,0.7,1,1.1c-0.7-0.8,0.1,0.2,0.2,0.4c0.3,0.4,0.5,0.9,0.7,1.3c0.1,0.1,0.1,0.3,0.2,0.4
			c0,0.1,0,0.1,0.1,0.2c0.1,0.4,0.3,0.8,0.4,1.2c0,0.1,0.1,0.7,0.2,1c0,0.3,0.1,1,0.1,1.1C368,31.7,367.9,32.2,367.9,32.7z"/>
		<path class="st1" d="M356.1,57.1c-2,0-3.9-1-5.1-2.9c-0.7-1.1-1-2.6-0.8-4c-0.5-0.9-0.7-1.9-0.7-2.8V20.2c-0.2-0.3-0.3-0.7-0.4-1
			c-0.7-2.2,0.1-4.8,2.1-6.3c1.1-1.2,2.7-1.9,4.3-1.9c0.6,0,1.2,0,1.8,0.2c4-0.3,8,0.6,11.5,2.6l0,0c4.1,2.3,7.2,5.9,8.9,10.5
			c1.6,4.3,1.8,9.2,0.5,13.7c-1.6,5.7-3.9,9.7-6.8,12.1c-2.8,2.3-6.2,3.8-9.4,5.2c-0.9,0.4-1.8,0.8-2.7,1.2
			C358.1,56.9,357,57.1,356.1,57.1z M355.6,13c0,0-0.1,0-0.1,0c-1.1,0.1-2.2,0.5-2.9,1.3c0,0-0.1,0.1-0.1,0.1
			c-1.3,1-1.9,2.7-1.4,4.1c0.1,0.3,0.2,0.6,0.4,0.9c0.1,0.2,0.1,0.3,0.1,0.5v27.4c0,0.7,0.2,1.4,0.6,2.1c0.2,0.2,0.2,0.5,0.1,0.8
			c-0.2,1-0.1,2.1,0.4,2.8c1.2,1.9,3.3,2.4,5.4,1.4c0.9-0.4,1.8-0.8,2.8-1.2c3.1-1.4,6.4-2.8,8.9-4.9c2.6-2.1,4.6-5.7,6.1-11
			c1.2-4.1,1-8.5-0.4-12.4c-1.5-4.1-4.2-7.3-7.9-9.3l0,0c-3.2-1.8-6.8-2.6-10.5-2.3c-0.1,0-0.3,0-0.4-0.1
			C356.3,13.1,356,13,355.6,13z M360.4,44.7c-0.2,0-0.4-0.1-0.6-0.2c-0.3-0.2-0.5-0.5-0.5-0.9V22.2c0-0.3,0.1-0.6,0.4-0.8
			c0.3-0.2,0.6-0.3,0.9-0.2c0.4,0.1,0.8,0.2,1.2,0.3c0.2,0.1,0.5,0.2,0.8,0.3c0,0,0.1,0,0.1,0.1c0.6,0.3,1.4,0.7,2.1,1.2
			c0.1,0.1,0.2,0.1,0.2,0.2c0.1,0.1,0.2,0.2,0.3,0.3c0.2,0.2,0.3,0.3,0.4,0.4c0.3,0.3,0.6,0.6,0.8,0.9c0.1,0.1,0.1,0.2,0.2,0.3
			c0,0,0,0,0,0c0.1,0.1,0.2,0.2,0.2,0.3c0.1,0.1,0.1,0.1,0.1,0.2c0.3,0.4,0.6,0.9,0.8,1.4c0.1,0.1,0.1,0.3,0.2,0.4l0,0
			c0,0,0,0,0,0.1l0.1,0.2c0,0,0,0,0,0.1l0.1,0.3c0.1,0.3,0.2,0.7,0.3,1c0,0.1,0,0.2,0.1,0.5c0,0.2,0.1,0.4,0.1,0.5
			c0,0.1,0,0.1,0,0.2c0,0.1,0,0.4,0,0.6c0,0.3,0,0.5,0,0.5c0,0.5,0,0.9,0,1.4l0,0.1c0,0,0,0,0,0l0,0.1c0,0,0,0.1,0,0.1
			c-0.1,0.3-0.1,0.7-0.2,1c-0.2,0.9-0.5,1.9-0.9,2.9c0,0-0.1,0.2-0.2,0.5c-0.1,0.2-0.2,0.6-0.3,0.7c0,0.1,0,0.1-0.1,0.2
			c-0.2,0.4-0.3,0.8-0.5,1.1c-0.2,0.5-0.5,0.9-0.7,1.3c-0.1,0.1-0.1,0.2-0.2,0.3c0,0.1-0.1,0.2-0.2,0.4l0,0l-0.1,0.1c0,0,0,0,0,0
			l-0.2,0.3c0,0,0,0,0,0l0,0.1c-0.2,0.2-0.5,0.5-0.7,0.7c-0.1,0.1-0.2,0.1-0.3,0.2c-0.1,0-0.2,0.1-0.2,0.2c-0.2,0.1-0.3,0.2-0.4,0.3
			c-0.9,0.6-1.9,1-2.8,1.5l-0.1,0C360.7,44.7,360.6,44.7,360.4,44.7z M361.5,23.6V42c0.4-0.2,0.8-0.4,1.2-0.7c0,0,0.2-0.1,0.3-0.2
			c0.1-0.1,0.2-0.2,0.4-0.2c0.2-0.2,0.4-0.4,0.6-0.6l0,0c0.1-0.2,0.3-0.4,0.4-0.7c0.2-0.3,0.4-0.7,0.6-1.2c0.1-0.3,0.3-0.6,0.4-0.9
			c0,0,0-0.1,0-0.1c0-0.1,0-0.1,0.1-0.2c0.1-0.2,0.1-0.4,0.2-0.6c0.1-0.2,0.1-0.4,0.2-0.4c0.3-1,0.6-1.9,0.8-2.7
			c0.1-0.3,0.1-0.6,0.2-0.9l0-0.2c0-0.4,0-0.8,0-1.2c0-0.1,0-0.2,0-0.4c0-0.2,0-0.4,0-0.5c0-0.1-0.1-0.3-0.1-0.5
			c0-0.2-0.1-0.3-0.1-0.4c-0.1-0.3-0.2-0.6-0.3-0.9l-0.1-0.4c-0.1-0.1-0.1-0.2-0.2-0.3c-0.2-0.4-0.5-0.8-0.7-1.2
			c0-0.1-0.1-0.2-0.2-0.3c-0.1-0.1-0.1-0.2-0.2-0.2c0-0.1-0.1-0.1-0.1-0.2c-0.2-0.2-0.4-0.5-0.6-0.7c0,0-0.2-0.1-0.3-0.3
			c-0.1-0.1-0.3-0.2-0.4-0.3c-0.6-0.4-1.3-0.7-1.8-1C361.7,23.7,361.6,23.6,361.5,23.6z M367.9,32.7L367.9,32.7L367.9,32.7z"/>
	</g>
	<g>
		<path class="st0" d="M448.2,17.9c-0.8-2.6-3.4-4.2-6.1-3.5c-4.4,1.2-8.3,3.5-11.5,6.6c0-0.2,0-0.5,0.1-0.7c0.3-2.6-2.5-5.1-5-5
			c-2.9,0.1-4.7,2.2-5,5C419.6,31,420.4,42,423,52.5c0,0.8,0.2,1.6,0.6,2.3c0.1,0.3,0.2,0.6,0.2,0.9c0.6,2,2.6,3.7,4.8,3.6
			c2.1-0.1,4.4-1.5,4.8-3.6c0.3-1.8,0.1-3.3-0.5-4.6c-0.2-0.9-0.5-1.8-0.7-2.7c0-0.3,0-0.5,0-0.8c-0.1-1.7-0.2-3.4-0.2-5.1
			c0-0.8,0-1.5,0.1-2.3c0-0.4,0.1-0.8,0.1-1.3c0-0.2,0-0.3,0.1-0.5c0.2-1.4,0.5-2.7,1-4.1c0,0,0.2-0.4,0.3-0.6
			c0.1-0.2,0.2-0.3,0.2-0.4c0.3-0.6,0.6-1.2,1-1.7c0.3-0.5,0.7-1,1-1.5c0,0,0,0,0,0c0,0,0,0,0.1-0.1c0.2-0.2,0.4-0.5,0.7-0.8
			c0.7-0.8,1.6-1.6,2.4-2.3c0.1-0.1,0.4-0.3,0.5-0.3c0.3-0.2,0.5-0.4,0.8-0.5c0.6-0.4,1.1-0.7,1.7-1c0.2-0.1,0.5-0.2,0.7-0.3
			c0,0,0,0,0.1,0c0,0,0,0,0,0c0.7-0.2,1.4-0.5,2.1-0.7C447.2,23.3,449,20.4,448.2,17.9z M432.2,38.4
			C432.3,38.4,432.3,38.3,432.2,38.4C432.2,38.7,432.2,38.7,432.2,38.4z"/>
		<path class="st1" d="M428.5,60.3c-2.5,0-4.9-1.9-5.6-4.4c-0.1-0.2-0.1-0.4-0.1-0.5c0-0.1,0-0.2-0.1-0.2c-0.4-0.8-0.6-1.7-0.7-2.5
			c-2.6-10.7-3.4-21.6-2.3-32.4c0.4-3.4,2.7-5.8,6-5.9c1.6-0.1,3.3,0.7,4.5,2c0.7,0.7,1.2,1.6,1.4,2.5c3-2.5,6.6-4.3,10.3-5.3
			c3.1-0.9,6.4,1,7.4,4.2c0.5,1.4,0.3,3-0.5,4.4c-0.8,1.5-2.2,2.6-3.7,3c-0.4,0.1-0.8,0.3-1.3,0.4c-0.2,0.1-0.5,0.2-0.8,0.3
			l-0.2,0.1c-0.2,0.1-0.3,0.2-0.5,0.2c-0.6,0.3-1.1,0.6-1.6,0.9c-0.3,0.2-0.5,0.3-0.8,0.5c-0.1,0-0.1,0.1-0.2,0.2
			c-0.1,0-0.1,0.1-0.2,0.1c-0.8,0.7-1.6,1.4-2.3,2.2c-0.1,0.1-0.2,0.3-0.3,0.4c-0.1,0.1-0.2,0.2-0.3,0.4l0,0
			c-0.1,0.2-0.2,0.3-0.3,0.5c-0.2,0.3-0.4,0.6-0.6,0.9c-0.3,0.5-0.6,1.1-0.9,1.7c0,0,0,0.1-0.1,0.2l-0.1,0.2
			c-0.1,0.1-0.2,0.4-0.2,0.5l0,0.1c-0.4,1.1-0.7,2.3-1,3.8l0,0.4c0,0.2,0,0.4,0,0.6c0,0.2,0,0.4,0,0.6c0,0.7-0.1,1.4-0.1,2.2
			c0,1.7,0.1,3.4,0.2,5c0,0.3,0,0.5,0,0.8c0.2,0.9,0.4,1.7,0.6,2.4c0.8,1.5,1,3.2,0.6,5.2c-0.5,2.8-3.4,4.4-5.8,4.5
			C428.6,60.3,428.5,60.3,428.5,60.3z M425.8,16.4c0,0-0.1,0-0.1,0c-2.2,0.1-3.7,1.6-4,4c-1.1,10.6-0.3,21.3,2.3,31.8
			c0,0.1,0,0.2,0,0.3c0,0.6,0.2,1.2,0.5,1.8c0,0.1,0.1,0.1,0.1,0.2c0,0.1,0.1,0.2,0.1,0.4c0,0.2,0.1,0.3,0.1,0.5
			c0.5,1.7,2.1,2.9,3.7,2.9c1.6-0.1,3.5-1.1,3.8-2.8c0.3-1.5,0.1-2.8-0.4-4c0-0.1-0.1-0.1-0.1-0.2c-0.2-0.8-0.4-1.7-0.7-2.8
			c0-0.1,0-0.3,0-0.4c0-0.2,0-0.4,0-0.6c-0.1-1.7-0.2-3.4-0.2-5.1c0-0.8,0-1.6,0.1-2.3c0-0.2,0-0.5,0-0.7c0-0.2,0-0.4,0-0.6
			c0,0,0,0,0,0l0-0.2c0,0,0-0.1,0-0.1l0,0l0-0.2c0,0,0,0,0-0.1c0,0,0,0,0,0l0-0.1c0,0,0,0,0,0c0.3-1.6,0.6-3,1.1-4.2
			c0,0,0-0.1,0.1-0.1c0.1-0.1,0.2-0.4,0.2-0.5c0,0,0,0,0-0.1l0.1-0.2c0-0.1,0.1-0.2,0.1-0.2c0.3-0.6,0.6-1.2,1-1.8
			c0.2-0.3,0.4-0.7,0.7-1c0.1-0.2,0.2-0.3,0.4-0.5c0,0,0.1-0.1,0.1-0.1l0.1-0.1c0.1-0.1,0.2-0.2,0.3-0.3c0.1-0.1,0.3-0.3,0.4-0.4
			c0.8-0.8,1.6-1.6,2.5-2.4c0,0,0,0,0.1,0c0,0,0.1-0.1,0.2-0.1c0.1-0.1,0.2-0.2,0.3-0.2c0.3-0.2,0.6-0.4,0.9-0.6
			c0.6-0.4,1.2-0.7,1.8-1c0.2-0.1,0.4-0.2,0.5-0.3l0.2-0.1c0.1,0,0.1,0,0.2-0.1c0.3-0.1,0.5-0.2,0.8-0.3c0.4-0.2,0.9-0.3,1.4-0.4
			c1-0.3,1.9-1,2.4-2c0.5-0.9,0.6-1.9,0.3-2.8v0c-0.7-2.1-2.8-3.3-4.8-2.8c-4.1,1.1-7.9,3.3-11.1,6.3c-0.3,0.3-0.8,0.4-1.2,0.2
			c-0.4-0.2-0.6-0.6-0.6-1.1c0-0.1,0-0.2,0-0.3c0-0.1,0-0.3,0-0.4c0.1-0.8-0.3-1.7-1-2.5C427.8,16.9,426.8,16.4,425.8,16.4z"/>
	</g>
	<g>
		<path class="st0" d="M163.4,23.5c-2.3,0.4-4.2,1.6-5.7,3.3c-3.5-4.5-8.7-7.3-14.5-7.3c-6.8,0-13,3.9-16.2,9.9
			c-2.7,5.1-3.6,11.2-2.9,16.9c0.9,7.9,3.9,15.4,8.6,21.8c1.6,2.1,4.3,3.4,6.8,1.8c2-1.3,3.5-4.6,1.8-6.8c-1.7-2.3-3.2-4.7-4.4-7.2
			c-0.2-0.4-0.3-0.7-0.5-1.1c0,0,0,0,0,0c0,0,0-0.1,0-0.1c-0.2-0.7-0.5-1.3-0.7-2c-0.5-1.3-0.8-2.7-1.1-4.1
			c-0.2-0.7-0.3-1.4-0.4-2.1c0-0.1,0-0.2-0.1-0.3c0-0.2,0-0.4,0-0.5c-0.1-1.1-0.2-2.3-0.1-3.4c0-0.6,0-1.2,0.1-1.7
			c0-0.2,0-0.3,0-0.5c0-0.1,0-0.1,0-0.3c0.2-1.1,0.4-2.2,0.8-3.3c0.1-0.3,0.2-0.6,0.3-0.9c0-0.1,0.2-0.3,0.2-0.5
			c0.1-0.1,0.1-0.2,0.1-0.2c0.1-0.2,0.2-0.4,0.3-0.6c0.2-0.4,0.5-0.8,0.8-1.2c0,0,0-0.1,0.1-0.1c0.2-0.2,0.3-0.4,0.5-0.6
			c0.4-0.4,0.8-0.7,1.2-1.1c0,0,0,0,0,0c0.2-0.1,0.4-0.3,0.6-0.4c0.3-0.2,1.2-0.6,1-0.5c0.6-0.2,1.1-0.4,1.7-0.5
			c0.1,0,0.3,0,0.4-0.1c0.1,0,0.5,0,0.6-0.1c0.6,0,1.2,0,1.8,0c0,0,0,0,0,0c0.3,0.1,0.5,0.1,0.8,0.2c0.3,0.1,0.5,0.1,0.8,0.2
			c0.2,0.1,0.5,0.2,0.6,0.3c0.5,0.3,0.9,0.5,1.4,0.8c0,0,0.1,0,0.1,0c0,0,0,0,0.1,0.1c0.2,0.2,0.4,0.4,0.6,0.6
			c0.3,0.3,0.6,0.6,0.9,1c-0.2-0.2,0,0,0.1,0.2c0,0,0.1,0.1,0.1,0.1c0,0-0.1-0.1-0.1-0.1c0,0,0,0.1,0.1,0.1c0.2,0.4,0.5,0.7,0.7,1.1
			c0.3,0.5,0.5,1,0.8,1.5c0,0.1,0.2,0.4,0.2,0.6c0.1,0.3,0.2,0.7,0.3,1c0.2,0.7,0.4,1.4,0.5,2c0.1,0.4,0.1,0.7,0.2,1.1
			c-0.5,3.9-0.5,8-0.1,11.8c0.3,2.6,2.1,5.1,5,5c2.9-0.1,4.7-2.2,5-5c0.3-3.8,0.5-7.5,0.1-11.3c0-0.1,0-0.3,0.1-0.4
			c0.2-1.2,0.5-2.5,0.8-3.7c0.1-0.5,0.3-1,0.5-1.5c0.1-0.2,0.2-0.4,0.3-0.6c0.1-0.2,0.5-0.6,0.6-0.8c0.4-0.3,0.8-0.6,0.1-0.2
			c0.1-0.1,0.3-0.2,0.4-0.2c0,0,0.1,0,0.2-0.1c0,0,0,0,0.1,0c0.1,0,0.2,0,0.3,0c0,0,0,0,0,0c0.3,0.1,0.5,0.1,0.7,0.2
			c-1.1-0.3,0.2,0.1,0.4,0.3c0.2,0.1,0.8,0.6,0.8,0.6c0.3,0.3,0.6,0.6,0.9,0.9c0.1,0.1,0.9,1.2,0.7,0.9c0.3,0.4,0.5,0.8,0.8,1.2
			c0.3,0.5,0.6,1,0.8,1.5c0.1,0.2,0.2,0.5,0.3,0.7c0,0,0,0.1,0,0.1c0.4,1.1,0.8,2.2,1,3.3c0.1,0.4,0.2,0.9,0.3,1.3
			c-0.1-0.2,0.1,1,0.1,1.2c0.1,1.2,0.1,2.3,0,3.5c0,0.2,0,0.4-0.1,0.7c0,0.1,0,0.1,0,0.2c-0.1,0.6-0.2,1.1-0.4,1.7
			c-0.3,1.1-0.7,2.2-1.1,3.3c-1,2.4,1.1,5.6,3.5,6.1c2.9,0.7,5-0.9,6.1-3.5c3.6-8.8,2.2-19.9-3.6-27.5
			C174,25.5,168.9,22.4,163.4,23.5z M144.2,29.4C144,29.3,143.7,29.3,144.2,29.4L144.2,29.4z"/>
		<path class="st1" d="M137.2,71.5c-2.1,0-4.1-1.2-5.3-2.9c-4.8-6.3-7.9-14-8.9-22.3c-0.7-6.3,0.3-12.5,3-17.5
			c3.4-6.4,10-10.4,17.1-10.4c0,0,0,0,0.1,0c5.6,0,10.9,2.5,14.6,6.8c1.6-1.4,3.4-2.4,5.4-2.7c0,0,0,0,0,0c5.3-1,10.9,1.5,15,6.7
			c6,7.8,7.5,19.2,3.7,28.5c-1.3,3.3-4.1,4.8-7.3,4.1c-1.5-0.4-3-1.6-3.9-3.2c-0.8-1.5-0.9-3-0.3-4.4c0.5-1.1,0.8-2.1,1-3.2
			c0.1-0.4,0.2-0.8,0.2-1.2c0-0.2,0.1-0.3,0.1-0.5l0-0.1c0-0.2,0-0.4,0.1-0.6c0.1-1.1,0.1-2.2,0-3.3c0-0.1,0-0.3-0.1-0.5
			c0-0.2,0-0.4-0.1-0.5c0-0.1,0-0.1,0-0.2c-0.1-0.5-0.2-0.9-0.2-1.2c-0.3-1.1-0.6-2.3-1-3.2l0-0.1c-0.1-0.2-0.2-0.4-0.3-0.7
			c-0.2-0.5-0.5-1-0.8-1.5c-0.2-0.3-0.4-0.6-0.6-1c0,0-0.1-0.1-0.1-0.2c-0.1-0.1-0.2-0.2-0.3-0.3c-0.1-0.1-0.3-0.3-0.3-0.4
			c-0.2-0.2-0.5-0.5-0.8-0.7c-0.1-0.1-0.3-0.2-0.4-0.3c-0.1-0.1-0.3-0.2-0.3-0.2c-0.1,0-0.3-0.1-0.5-0.2c-0.1,0-0.2-0.1-0.3-0.1
			c0,0-0.1,0.1-0.1,0.1c0,0,0,0-0.1,0.1c0,0.1-0.1,0.1-0.1,0.2c-0.1,0.1-0.3,0.3-0.3,0.4c-0.1,0.1-0.2,0.3-0.2,0.5l-0.1,0.2
			c-0.1,0.4-0.3,0.7-0.4,1.1c-0.3,1-0.5,2.1-0.8,3.6c0,0.1,0,0.2,0,0.3l0,0c0.3,3.8,0.1,7.7-0.2,11.3c-0.3,3.4-2.7,5.8-6,5.9
			c-1.6,0.1-3.2-0.6-4.3-1.8c-1-1.1-1.6-2.5-1.8-4.1c-0.4-4-0.4-8,0.1-11.9c-0.1-0.3-0.1-0.6-0.2-0.9c-0.1-0.7-0.3-1.3-0.5-2
			c-0.1-0.3-0.2-0.6-0.3-1c0-0.1-0.1-0.3-0.2-0.4l0-0.1c-0.3-0.5-0.5-1-0.7-1.4c-0.1-0.2-0.3-0.4-0.4-0.6c-0.1-0.1-0.2-0.3-0.3-0.4
			c0,0,0,0,0,0c0,0,0,0,0,0c0,0,0,0-0.1-0.1l0,0c-0.3-0.3-0.5-0.6-0.8-0.9c-0.1-0.1-0.2-0.2-0.3-0.3c-0.1-0.1-0.2-0.1-0.2-0.2
			c-0.3-0.2-0.6-0.3-0.8-0.5c-0.2-0.1-0.3-0.2-0.5-0.3c-0.1,0-0.4-0.2-0.5-0.2c-0.2-0.1-0.5-0.1-0.7-0.2c-0.2,0-0.4-0.1-0.6-0.1
			l-0.2,0c-0.5,0-1.1-0.1-1.6,0c-0.1,0-0.2,0-0.3,0c-0.1,0-0.1,0-0.2,0c0,0-0.1,0-0.1,0c-0.1,0-0.1,0-0.2,0c-0.5,0.1-1,0.2-1.4,0.4
			c-0.1,0.1-0.3,0.2-0.4,0.2c-0.2,0.1-0.4,0.2-0.5,0.2c-0.1,0.1-0.2,0.1-0.3,0.2c-0.1,0.1-0.2,0.1-0.3,0.2c-0.2,0.2-0.4,0.3-0.5,0.5
			c-0.2,0.2-0.4,0.3-0.5,0.5c-0.2,0.2-0.3,0.3-0.4,0.5l0,0c-0.1,0.1-0.2,0.3-0.2,0.4c-0.2,0.3-0.4,0.5-0.5,0.8
			c-0.1,0.2-0.2,0.4-0.3,0.6l-0.1,0.3c0,0.1-0.1,0.2-0.1,0.3c-0.1,0.3-0.2,0.6-0.3,0.8c-0.3,1.1-0.6,2.2-0.8,3.2c0,0.1,0,0.1,0,0.2
			c0,0.1,0,0.1,0,0.2c0,0.1,0,0.2,0,0.3c0,0.6-0.1,1.1-0.1,1.7c0,1.1,0,2.2,0.1,3.3c0,0.1,0,0.2,0,0.2c0,0.1,0,0.2,0,0.2
			c0,0.1,0.1,0.3,0.1,0.3c0.1,0.7,0.2,1.4,0.4,2c0.3,1.3,0.7,2.7,1.1,4c0.1,0.4,0.3,0.7,0.4,1.1c0.1,0.3,0.2,0.6,0.3,0.9l0,0
			c0.1,0.1,0.1,0.3,0.2,0.4c0.1,0.2,0.2,0.4,0.3,0.7c1.2,2.4,2.6,4.8,4.3,7.1c0.8,1.1,1.1,2.4,0.9,3.9c-0.3,1.8-1.4,3.5-2.9,4.4
			C139.1,71.2,138.2,71.5,137.2,71.5z M143.1,20.5c-6.2,0-12.2,3.6-15.2,9.3c-2.5,4.7-3.5,10.5-2.8,16.3c0.9,7.9,3.9,15.2,8.4,21.2
			c1.2,1.6,3.4,2.8,5.4,1.5c1-0.6,1.8-1.8,2-3c0.1-0.6,0.1-1.5-0.5-2.2c-1.8-2.4-3.3-4.9-4.5-7.4c-0.1-0.2-0.2-0.5-0.3-0.7
			c-0.1-0.1-0.1-0.3-0.2-0.4c0,0,0-0.1-0.1-0.1l0-0.1c-0.1-0.3-0.2-0.6-0.3-0.9c-0.1-0.4-0.3-0.8-0.4-1.2c-0.5-1.4-0.9-2.8-1.2-4.2
			c-0.2-0.7-0.3-1.4-0.4-2.1c0-0.1,0-0.2-0.1-0.3c0,0,0-0.1,0-0.1c0-0.1,0-0.3,0-0.4c0-0.1,0-0.1,0-0.2c-0.1-1.2-0.2-2.4-0.1-3.6
			c0-0.6,0-1.2,0.1-1.8c0-0.1,0-0.2,0-0.2c0-0.1,0-0.2,0-0.3c0,0,0-0.1,0-0.1c0-0.1,0-0.1,0-0.2c0.2-1.1,0.5-2.3,0.8-3.4
			c0.1-0.3,0.2-0.6,0.3-0.9c0-0.1,0.1-0.2,0.2-0.4l0-0.1c0,0,0,0,0,0l0.1-0.2c0.1-0.2,0.2-0.5,0.4-0.7c0.2-0.3,0.4-0.6,0.6-0.9
			c0.1-0.1,0.2-0.2,0.2-0.4l0.1-0.1c0,0,0.1-0.1,0.1-0.1c0.2-0.2,0.4-0.4,0.6-0.6c0.2-0.2,0.4-0.4,0.7-0.6c0.2-0.2,0.4-0.3,0.5-0.5
			c0.1-0.1,0.1-0.1,0.2-0.2c0,0,0,0,0,0c0.1-0.1,0.2-0.1,0.3-0.2c0.1-0.1,0.2-0.2,0.3-0.2c0.1-0.1,0.3-0.2,0.6-0.3
			c0.1,0,0.2-0.1,0.2-0.1c0.1-0.1,0.2-0.1,0.3-0.2c0.6-0.2,1.2-0.4,1.9-0.5c0.1,0,0.2,0,0.3-0.1l0.1,0c0,0,0.1,0,0.1,0
			c0,0,0.1,0,0.2,0c0.2,0,0.3,0,0.4,0c0.4,0,0.7,0,1.1,0c0.2-0.1,0.4,0,0.6,0l0,0c0,0,0,0,0,0c0.1,0,0.2,0,0.3,0.1c0,0,0,0,0.1,0
			c0,0,0,0,0.1,0l0.2,0c0.2,0,0.4,0.1,0.7,0.2c0.3,0.1,0.6,0.2,0.9,0.3c0.2,0.1,0.5,0.2,0.7,0.3l0,0c0,0,0.1,0,0.1,0
			c0.2,0.1,0.4,0.2,0.5,0.3c0.3,0.2,0.5,0.3,0.8,0.5l0,0c0.1,0,0.2,0.1,0.3,0.2l0.1,0.1c0.1,0.1,0.2,0.1,0.2,0.2
			c0.1,0.1,0.3,0.2,0.4,0.4c0.3,0.3,0.6,0.6,0.8,0.9c0.1,0.1,0.2,0.2,0.3,0.3l0.1,0.1c0.1,0.1,0.1,0.2,0.2,0.3
			c0,0.1,0.1,0.1,0.1,0.2c0.2,0.2,0.3,0.5,0.5,0.7c0.3,0.5,0.5,1,0.8,1.6c0,0,0,0,0,0.1l0,0.1c0.1,0.2,0.2,0.4,0.2,0.5
			c0.1,0.4,0.3,0.7,0.4,1.1c0.2,0.7,0.4,1.4,0.6,2.1c0.1,0.3,0.1,0.7,0.2,1.1c0,0.1,0,0.2,0,0.3c-0.5,3.8-0.5,7.7-0.1,11.6
			c0.2,2.1,1.6,4.1,3.9,4c2.2-0.1,3.8-1.7,4-4c0.3-3.6,0.5-7.4,0.1-11.1c0-0.1,0-0.2,0-0.3l0-0.2c0-0.1,0-0.2,0-0.3
			c0.3-1.5,0.5-2.7,0.8-3.8c0.1-0.4,0.3-0.8,0.4-1.2l0.1-0.3c0,0,0-0.1,0-0.1c0.1-0.3,0.2-0.5,0.3-0.7c0.1-0.2,0.2-0.4,0.5-0.7
			c0,0,0.1-0.1,0.1-0.1c0.1-0.2,0.2-0.4,0.4-0.6c0.1-0.1,0.3-0.2,0.5-0.3c0.1,0,0.1-0.1,0.2-0.1l0.2-0.1c0,0,0.1,0,0.1,0l0.1,0
			c0.1,0,0.1,0,0.2,0c0.1,0,0.2,0,0.4,0c0.1,0,0.1,0,0.2,0c0,0,0,0,0.1,0c0.3,0.1,0.6,0.2,0.9,0.3c0.1,0,0.3,0.1,0.4,0.2
			c0.1,0,0.2,0.1,0.3,0.1c0.1,0.1,0.2,0.2,0.5,0.3c0.1,0.1,0.2,0.2,0.3,0.2c0.1,0,0.2,0.1,0.2,0.1c0.4,0.3,0.7,0.6,1,0.9
			c0.1,0.1,0.2,0.2,0.4,0.5c0.1,0.1,0.1,0.2,0.2,0.2c0.1,0.1,0.2,0.1,0.2,0.2c0.3,0.5,0.6,0.9,0.8,1.2c0.3,0.5,0.6,1.1,0.9,1.6
			c0.1,0.2,0.2,0.5,0.4,0.7c0,0,0,0,0,0l0,0.1c0,0,0,0,0,0c0.4,1,0.8,2.2,1,3.5c0.1,0.4,0.2,0.8,0.3,1.4c0,0.1,0,0.2,0,0.2
			c0,0.1,0,0.4,0.1,0.5c0,0.4,0.1,0.5,0.1,0.6c0.1,1.2,0.1,2.4,0,3.6c0,0.2,0,0.5-0.1,0.7c0,0,0,0,0,0.1l0,0.2c0,0,0,0,0,0
			c0,0.2-0.1,0.3-0.1,0.5c-0.1,0.4-0.2,0.8-0.3,1.3c-0.3,1.1-0.7,2.3-1.1,3.4c-0.3,0.7-0.2,1.7,0.3,2.6c0.5,1.1,1.5,1.9,2.5,2.1
			c1,0.2,3.6,0.4,4.9-2.8c3.5-8.6,2.1-19.2-3.5-26.4c-5.1-6.6-10.7-6.4-12.9-6c-1.9,0.4-3.6,1.4-5.1,2.9c-0.2,0.2-0.5,0.4-0.8,0.3
			c-0.3,0-0.6-0.2-0.8-0.4C153.5,23,148.5,20.5,143.1,20.5C143.1,20.5,143.1,20.5,143.1,20.5z"/>
	</g>
	<g>
		<path class="st0" d="M412.6,32.1c-0.5-5.3-2-11.1-6-14.9c-4.8-4.6-12.8-6.2-17.9-1c-4.2,4.4-5.3,11.5-5.4,17.3
			c-0.1,6.3,1.8,13,6.9,17.1c2.7,2.2,6.1,3.5,9.6,3.4c3.5-0.1,7-1.5,9.3-4.2c1.4-1.6,1.7-4.2,0-5.7c-1.5-1.4-4.3-1.7-5.7,0
			c-0.3,0.4-0.7,0.7-1.1,1.1c0.7-0.6-0.3,0.1-0.7,0.3c0,0,0.1,0,0.1,0c0,0-0.1,0-0.1,0c0,0,0,0,0,0c-0.1,0.1-0.3,0.1-0.3,0.1
			c0,0-0.1,0-0.1,0c-0.3,0.1-0.6,0.1-0.9,0.2c0,0,0,0-0.1,0c0,0,0,0-0.1,0c-0.5,0-0.9,0-1.4,0c-0.1,0-0.1,0-0.2,0
			c-0.2,0-0.4-0.1-0.4-0.1c-0.2-0.1-1.4-0.5-1-0.3c-0.4-0.2-0.8-0.4-1.2-0.7c0,0-0.2-0.2-0.4-0.3c-0.1-0.1-0.4-0.3-0.4-0.3
			c-0.4-0.3-0.7-0.7-1-1.1c-0.1-0.1-0.3-0.5-0.3-0.4c-0.1-0.1-0.1-0.2-0.2-0.2c-0.4-0.6-0.7-1.1-1-1.7c-0.1-0.1-0.1-0.3-0.2-0.4
			c0-0.1-0.1-0.1-0.1-0.2c-0.2-0.5-0.4-1.1-0.5-1.6c-0.3-1.2-0.4-1.7-0.5-2.5c5.7,0,11.4,0,17.1,0C410.6,36.1,412.8,34.3,412.6,32.1
			z M392.6,40.5C392.7,40.6,392.6,40.6,392.6,40.5L392.6,40.5z M398.7,21.4C398.8,21.5,398.9,21.5,398.7,21.4L398.7,21.4z
			 M392.9,24.9c0.1-0.2,0.1-0.4,0.2-0.6c0,0,0-0.1,0-0.1c0.2-0.5,0.5-1,0.8-1.5c0.1-0.2,0.2-0.3,0.3-0.5c0,0,0,0,0,0
			c0,0,0,0,0.1-0.1c0.2-0.2,0.5-0.7,0.8-0.8c-0.1,0.1-0.2,0.2-0.4,0.3c0.2-0.1,0.3-0.2,0.5-0.3c0.1,0,0.2-0.1,0.3-0.2
			c0,0,0.1,0,0.1,0c0.2-0.1,0.4-0.1,0.5-0.1c0.3,0,0.6,0,1,0c0.1,0,0.4,0.1,0.5,0.1c0.3,0.1,0.5,0.2,0.8,0.2c0,0,0.1,0,0.2,0.1
			c0.2,0.1,0.4,0.2,0.6,0.3c0.3,0.1,0.5,0.3,0.7,0.4c0.1,0.1,0.7,0.6,0.5,0.4c0.4,0.3,0.7,0.7,1.1,1c0.1,0.2,0.7,1,0.1,0.2
			c0.2,0.3,0.3,0.5,0.5,0.8c0.3,0.5,0.5,0.9,0.7,1.4c0,0,0,0.1,0,0.1c0.1,0.4,0.3,0.7,0.4,1c0.1,0.4,0.2,0.7,0.3,1.1
			c-3.9,0-7.7,0-11.6,0c0-0.1,0-0.2,0-0.3C392.3,26.8,392.6,25.9,392.9,24.9z"/>
		<path class="st1" d="M399.4,55c-3.4,0-6.8-1.2-9.7-3.6c-4.8-3.9-7.5-10.4-7.3-17.9c0.2-8.2,2.1-14.3,5.7-18
			c2.6-2.6,6.1-3.9,9.9-3.5c3.4,0.3,6.9,2,9.5,4.5c3.5,3.4,5.7,8.6,6.3,15.6l0,0c0.1,1.2-0.3,2.4-1.2,3.4c-1,1.1-2.5,1.8-3.9,1.8
			l-15.9,0c0.1,0.3,0.1,0.7,0.3,1.2c0.1,0.4,0.2,0.7,0.3,1.1c0,0.1,0.1,0.3,0.1,0.4c0,0,0,0,0,0.1l0,0c0,0.1,0.1,0.2,0.1,0.3
			c0.3,0.6,0.6,1.1,0.9,1.6c0,0.1,0.1,0.1,0.1,0.2l0,0c0,0,0,0,0,0.1c0.1,0.1,0.2,0.2,0.2,0.3c0.3,0.3,0.6,0.7,0.9,1l0,0
			c0.1,0,0.2,0.2,0.3,0.2c0.1,0.1,0.2,0.2,0.3,0.2l0,0c0.3,0.2,0.6,0.3,0.9,0.5c0.2,0,0.4,0.1,0.6,0.2c0.1,0,0.4,0.1,0.4,0.1
			c0,0,0.1,0,0.1,0c0,0,0.1,0,0.1,0c0.1,0,0.1,0,0.2,0c0.3,0,0.6,0,0.9,0c0.1,0,0.3,0,0.4,0c0.1,0,0.2-0.1,0.3-0.1
			c0.2,0,0.3-0.1,0.5-0.1l0.1,0c0.1,0,0.1,0,0.2,0c0.1,0,0.2-0.1,0.3-0.2c0.2-0.1,0.4-0.2,0.6-0.3c0.2-0.2,0.4-0.4,0.6-0.6
			c0.8-0.9,1.9-1.5,3.1-1.5c1.5-0.1,3,0.4,4.1,1.4c2.2,2,1.8,5.2,0.1,7.2c-2.3,2.7-6,4.4-10,4.6C399.7,55,399.5,55,399.4,55z
			 M396.6,14c-2.6,0-5.1,0.9-7,3c-3.2,3.3-4.9,8.9-5.1,16.6c-0.2,6.9,2.2,12.8,6.5,16.2c2.7,2.2,5.8,3.3,8.9,3.1
			c3.5-0.1,6.6-1.5,8.5-3.8c1.3-1.5,1.1-3.4,0.1-4.3c-0.7-0.6-1.6-0.9-2.5-0.9c-0.5,0-1.2,0.2-1.7,0.8c-0.4,0.5-0.8,0.8-1.2,1.2
			c0,0,0,0,0,0c-0.2,0.1-0.3,0.2-0.5,0.3c-0.1,0.1-0.3,0.2-0.4,0.3c-0.1,0.1-0.3,0.1-0.5,0.2c0,0,0,0-0.1,0
			c-0.2,0.1-0.4,0.1-0.6,0.2c-0.1,0-0.2,0-0.3,0.1l0,0c-0.1,0-0.2,0-0.3,0h-0.1c-0.1,0-0.3,0-0.4,0c-0.3,0-0.7,0-1.1,0c0,0,0,0,0,0
			c-0.1,0-0.2,0-0.3,0c-0.1,0-0.3-0.1-0.4-0.1l-0.1,0c-0.1,0-0.3-0.1-0.6-0.2c-0.1,0-0.2-0.1-0.2-0.1c-0.1,0-0.3,0-0.4-0.1
			c-0.5-0.2-0.9-0.5-1.3-0.7l0,0c0,0,0,0-0.1-0.1c-0.1-0.1-0.2-0.2-0.3-0.2c0,0-0.1,0-0.1-0.1c-0.1-0.1-0.3-0.2-0.3-0.3
			c0,0-0.1-0.1-0.1-0.1c-0.4-0.4-0.8-0.7-1.1-1.1c-0.1-0.1-0.2-0.2-0.3-0.4l0,0c0,0,0,0-0.1-0.1l0-0.1c0-0.1-0.1-0.1-0.1-0.2
			c-0.4-0.6-0.7-1.2-1.1-1.9c0-0.1-0.1-0.2-0.1-0.3c0,0,0,0,0,0l0,0l0,0c0,0,0-0.1,0-0.1c0,0,0,0,0,0l0,0c0,0,0,0,0,0
			c0-0.1-0.1-0.2-0.1-0.3c0-0.1-0.1-0.3-0.1-0.4c-0.1-0.4-0.3-0.8-0.4-1.2c-0.3-1.2-0.4-1.7-0.5-2.7c0-0.3,0.1-0.6,0.3-0.8
			s0.5-0.3,0.8-0.3l17.1,0c0.8,0,1.7-0.4,2.3-1.1c0.3-0.3,0.8-1,0.7-1.8c-0.6-6.4-2.5-11.2-5.7-14.3C403.4,15.5,400,14,396.6,14z
			 M392.1,29.1c-0.3,0-0.6-0.1-0.8-0.4c-0.2-0.2-0.3-0.6-0.2-0.9l0-0.1c0-0.1,0-0.1,0-0.2c0.2-1.1,0.5-2.1,0.8-3v0
			c0-0.1,0.1-0.2,0.1-0.3c0-0.1,0.1-0.2,0.1-0.3l0-0.1c0,0,0-0.1,0.1-0.2l0-0.1c0.2-0.5,0.5-1,0.8-1.5c0.1-0.1,0.1-0.2,0.2-0.3
			c0-0.1,0.1-0.1,0.1-0.2l0,0c0.1-0.1,0.1-0.2,0.2-0.2c0,0,0,0,0,0l0,0c0,0,0.1-0.1,0.2-0.2c0.2-0.3,0.6-0.7,1.1-0.9c0,0,0,0,0.1,0
			c0.1,0,0.1-0.1,0.2-0.1c0.1-0.1,0.3-0.1,0.4-0.1c0.2,0,0.3-0.1,0.5-0.1c0.1,0,0.1,0,0.2,0c0.3,0,0.7,0,1,0c0.1,0,0.1,0,0.2,0
			c0,0,0.1,0,0.1,0c0.2,0,0.3,0.1,0.4,0.1c0.2,0,0.4,0.1,0.5,0.2c0.1,0,0.2,0.1,0.3,0.1c0.1,0,0.2,0.1,0.3,0.1c0,0,0,0,0,0
			c0,0,0,0,0,0c0,0,0.1,0.1,0.2,0.1c0.1,0.1,0.3,0.1,0.4,0.2c0.3,0.2,0.6,0.3,0.8,0.5c0.1,0.1,0.2,0.2,0.4,0.3c0,0,0,0,0,0
			c0.1,0,0.1,0.1,0.2,0.1c0.3,0.3,0.7,0.7,1.1,1.1c0,0,0,0,0,0.1c0.1,0.1,0.1,0.1,0.2,0.2c0.1,0.1,0.1,0.2,0.2,0.3
			c0.1,0.2,0.2,0.3,0.3,0.5c0.2,0.4,0.4,0.7,0.6,1.1c0.1,0.1,0.1,0.2,0.2,0.4l0,0.1c0,0,0,0.1,0.1,0.1c0,0.1,0.1,0.3,0.1,0.4
			c0.1,0.2,0.2,0.5,0.3,0.7c0.1,0.3,0.2,0.7,0.4,1.1c0.1,0.3,0,0.7-0.2,0.9s-0.5,0.4-0.8,0.4L392.1,29.1
			C392.1,29.1,392.1,29.1,392.1,29.1z M393.9,25.3c-0.2,0.6-0.4,1.1-0.5,1.8l8.9,0c0-0.1-0.1-0.2-0.1-0.3c0-0.1-0.1-0.2-0.1-0.3l0,0
			c-0.1-0.1-0.1-0.3-0.2-0.4c-0.2-0.3-0.3-0.7-0.5-1c-0.1-0.1-0.1-0.2-0.2-0.3c0,0-0.1-0.1-0.1-0.1c-0.1-0.1-0.2-0.3-0.2-0.3
			c-0.3-0.3-0.6-0.6-0.8-0.8c0,0,0,0-0.1-0.1l-0.1-0.1c-0.1-0.1-0.2-0.2-0.3-0.2c-0.2-0.1-0.4-0.3-0.7-0.4c-0.2-0.1-0.3-0.2-0.5-0.3
			c0,0,0,0,0,0c-0.1,0-0.2-0.1-0.4-0.1c-0.1,0-0.3-0.1-0.4-0.1c-0.1,0-0.2,0-0.3,0c0,0-0.1,0-0.1,0c-0.2,0-0.5,0-0.7,0
			c-0.1,0-0.2,0.1-0.4,0.1c0,0,0,0-0.1,0c0,0-0.1,0.1-0.1,0.1c-0.1,0.1-0.2,0.1-0.4,0.2c0,0-0.1,0.1-0.1,0.1
			c-0.1,0.1-0.2,0.2-0.3,0.3c0,0.1-0.1,0.1-0.1,0.2c-0.1,0.1-0.1,0.1-0.1,0.2c-0.2,0.4-0.4,0.8-0.7,1.3l0,0.1c0,0.1-0.1,0.2-0.1,0.4
			C393.9,25.1,393.9,25.2,393.9,25.3L393.9,25.3z M398.2,22.3C398.2,22.3,398.2,22.3,398.2,22.3C398.2,22.3,398.2,22.3,398.2,22.3z"
			/>
	</g>
</g>
<g>
	<g>
		<g>
			<path class="st2" d="M49.6,39.4C43.4,36.9,22.2,24.5,15.5,24c-1.4-0.1-2.9,0-3.9,0.8c-1,0.9-1,2.5-0.3,3.6c0.7,1.2,1.9,2,3.1,2.8
				c3.6,2.4,23.4,11.5-0.6,10.6C8.4,41.7,1.6,42.7,2,46.2c0.6,5.2,15.7,4.9,19.9,4.7c1.4-0.1,3.1,0,3.7,1.1c0.7,1.2-0.5,2.5-1.7,3.4
				c-3.4,2.6-6.6,3.1-10,5.7c-1.7,1.3-3.6,3-3.1,4.9c0.3,1.1,0.9,1.7,2.1,2.2c3.3,1.4,8.8-0.9,12.1-2.2c21.6-8.5,24.4-9.8,24.8-12
				c0.2-1.2,1.2-1.8,1.6-3.2c0.7-2.7,1-5.8-0.7-8.2"/>
		</g>
		<g>
			<g>
				<path class="st1" d="M49.9,38.4c-2.5-1-4.9-2.3-7.3-3.5c-3.4-1.7-6.8-3.5-10.3-5.2C29,28,25.6,26.4,22.2,25
					c-2.6-1-5.5-2.2-8.3-1.9c-2.1,0.2-4.1,1.4-4,3.8c0.1,2.4,2.2,4,4.1,5.3c1.5,1,3.2,1.8,4.8,2.8c1.8,1,3.6,2.1,5.1,3.6
					c0.3,0.3,0.4,0.4,0.6,0.7c0.1,0.2,0.1,0.3,0.1,0.3c0.1,0.3,0,0,0,0.2c0,0,0,0,0,0c-0.1,0,0,0-0.1,0.2c-0.1,0.1-0.6,0.3-0.9,0.4
					c-3.8,1.2-8.1,0.4-11.9,0.5c-2.1,0.1-4.4,0.3-6.4,0.9c-1.5,0.5-3.2,1.3-3.8,2.9c-1.1,2.8,1.7,4.8,3.9,5.6
					c3.1,1.1,6.6,1.4,9.8,1.5c1.6,0.1,3.1,0.1,4.7,0c1.4,0,3.1-0.4,4.4,0.1c2.6,1-3.6,4.3-4.4,4.7c-2.4,1.2-4.8,2.3-7,4
					C11,62.1,9.2,64,10,66.4c0.7,2,2.8,2.9,4.7,3.1c2.3,0.2,4.7-0.5,6.8-1.2c2.3-0.8,4.5-1.7,6.8-2.6c4.2-1.7,8.4-3.3,12.6-5.1
					c2.2-0.9,4.5-1.9,6.6-3c1-0.6,2.1-1.2,2.8-2.2c0.2-0.3,0.3-0.7,0.5-1.1c0.2-0.8,0.6-1.3,1-2c0.6-1.1,0.9-2.4,1-3.6
					c0.3-2.3,0.1-4.7-1.3-6.7c-0.7-1-2.3-0.1-1.6,0.9c1.5,2.2,1.3,4.8,0.7,7.2c-0.4,1.4-1.4,2.4-1.8,3.8c-0.1,0.3,0.1-0.1-0.1,0.2
					c0,0.1-0.1,0.1-0.1,0.2c0,0.1,0.1-0.1-0.1,0.1c-0.4,0.4-0.5,0.5-0.9,0.7c-1.5,1-3.2,1.7-4.8,2.5c-3.2,1.4-6.4,2.7-9.6,4
					c-4.5,1.8-9.1,3.9-13.8,5.3c-2,0.6-4.4,1.2-6.4,0.2c-0.9-0.4-1.6-1.2-1.4-2.2c0.1-1.2,1.4-2.2,2.2-2.9c2.1-1.7,4.5-2.7,6.9-3.9
					c2-1,4.8-2.4,5.7-4.6c0.9-2.1-1-3.5-2.9-3.7c-1.3-0.1-2.6,0-3.9,0c-3.1,0.1-6.3,0-9.4-0.4c-1.5-0.2-3.1-0.5-4.5-1
					c-0.9-0.3-2.1-0.9-2.6-1.8c-1.7-3.1,5.4-3.8,7-3.9c4.2-0.3,8.3,0.3,12.5-0.4c1.5-0.3,3.9-0.9,3.8-2.9c-0.1-1.7-1.8-3-3-3.9
					c-1.7-1.3-3.6-2.3-5.4-3.4c-2-1.1-4.8-2.3-5.9-4.3c-0.5-0.9-0.6-2.1,0.4-2.7c0.9-0.5,2.2-0.5,3.2-0.4c1.1,0.1,2.1,0.5,3.2,0.8
					c3.1,1,6.1,2.4,9.1,3.9c6.2,3,12.3,6.3,18.6,9.3c0.9,0.5,1.9,0.9,2.9,1.3C50.5,40.7,51,38.9,49.9,38.4L49.9,38.4z"/>
			</g>
		</g>
	</g>
	<g>
		<g>
			<path class="st2" d="M73,41c8.4-9.9,26.4-24.9,31.3-21.6c4.3,2.9-5.2,7.9-8.1,11.6c-1.2,1.5-0.2,3.7,1.9,4
				c3.4,0.4,6.8,0.6,10.3,0.6c3.2,0,4.4,3.9,1.6,5.3c-0.5,0.3-1,0.5-1.5,0.7c-3.2,1.4-6.8,2.1-10.1,3.3c-0.4,0.1-0.7,0.3-1,0.5
				c-1.9,1.5-0.1,3.9,1.8,5c7.5,4.1,9.6,5.8,8.9,8.1c-0.9,3-9.5,0.1-13-0.7c-6-1.5-12.1-3-18.1-4.5"/>
		</g>
		<g>
			<g>
				<path class="st1" d="M73.7,41.7c3.1-3.6,6.5-7,10.1-10.2c3.6-3.2,7.4-6.3,11.6-8.8c1.5-0.9,3.2-1.8,4.9-2.4
					c1-0.3,2.3-0.7,3.2-0.3c3.4,1.4-3.5,6.3-4.6,7.1c-1.4,1.2-3.6,2.6-4.1,4.5c-0.3,1,0,2.1,0.7,2.9c0.8,1,2,1.3,3.2,1.4
					c1.8,0.2,3.6,0.3,5.3,0.4c0.9,0,1.8,0.1,2.7,0.1c0.8,0,1.6-0.1,2.4,0.1c0.8,0.3,1.5,1,1.5,1.9c0,1.2-1.2,1.7-2.1,2.1
					c-3.1,1.4-6.4,2.1-9.6,3.2c-1.2,0.4-2.5,1-3,2.2c-0.4,1.1-0.1,2.3,0.6,3.2c0.9,1.2,2,1.9,3.3,2.6c1.3,0.7,2.5,1.4,3.7,2.1
					c1.2,0.8,3,1.7,3.7,3.1c0.4,0.9,0,1.6-1.1,1.8c-2,0.3-4.2-0.3-6.1-0.8c-5.8-1.4-11.7-3-17.5-4.4c-1.7-0.4-3.5-0.9-5.2-1.3
					c-1.2-0.3-1.7,1.5-0.5,1.8c6.8,1.7,13.6,3.2,20.3,5.1c2.3,0.6,4.6,1.2,6.9,1.5c1.6,0.2,3.8,0.2,4.8-1.3c2-3.1-2.2-5.8-4.4-7.2
					c-1.3-0.8-2.7-1.6-4.1-2.4c-1-0.5-3.2-1.9-2.5-3.3c0.3-0.7,1.2-0.9,1.9-1.1c0.9-0.3,1.8-0.6,2.7-0.9c1.7-0.5,3.4-1,5.1-1.6
					c2.2-0.8,5.1-1.8,5.1-4.6c0-2.3-2-3.8-4.1-3.9c-1.9-0.1-3.8-0.1-5.8-0.2c-1-0.1-1.9-0.1-2.9-0.2c-0.8-0.1-1.7,0-2.4-0.5
					c-2.2-1.5,1.3-3.9,2.4-4.8c1.7-1.5,3.6-2.9,5.1-4.6c1-1.2,2-2.9,1.1-4.5c-1.6-3-5.6-1.7-8-0.6c-4.3,1.9-8.1,4.8-11.8,7.8
					c-4.1,3.3-8,6.9-11.6,10.8c-0.8,0.8-1.5,1.7-2.3,2.6C71.5,41.3,72.9,42.6,73.7,41.7L73.7,41.7z"/>
			</g>
		</g>
	</g>
	<g>
		<path class="st0" d="M75.8,70C87.6,64.7,95.1,54.4,94,43.4c-1.5-14.7-18.2-25-37.1-23S23.7,35.9,25.3,50.6
			c1.1,10.3,9.6,18.5,21.1,21.7C46.4,72.3,61.9,76.3,75.8,70z"/>
		<path class="st1" d="M57.9,74.4c-6.6,0-11.4-1.2-11.8-1.3C33.8,69.6,25.5,61,24.4,50.7c-0.8-7.4,2.2-14.7,8.4-20.6
			c6.1-5.8,14.6-9.6,24-10.6c9.4-1,18.5,0.9,25.6,5.4c7.2,4.5,11.7,11,12.4,18.4c1.2,11-6.2,21.8-18.6,27.4l0,0
			C69.9,73.6,63.3,74.4,57.9,74.4z M46.6,71.5c0.4,0.1,15.5,3.8,28.9-2.3l0,0c11.8-5.3,18.7-15.4,17.7-25.7
			c-1.5-14.2-17.7-24.2-36.2-22.3c-9,0.9-17.2,4.5-23,10.1c-5.8,5.5-8.6,12.3-7.8,19.2C27.1,60.2,34.9,68.2,46.6,71.5z M75.8,70
			L75.8,70L75.8,70z"/>
	</g>
	<g>
		<path class="st2" d="M32.9,32.1c0,0,6.6-4.1,13.4,0.4S61.6,43.1,68.4,36s9.3-9.3,14.3-9c0,0-10.1-7.8-27.3-5.6
			C40.6,23.4,32.9,32.1,32.9,32.1z"/>
	</g>
	<g>
		<g>
			
				<ellipse transform="matrix(0.9957 -9.273613e-02 9.273613e-02 0.9957 -4.3199 4.2416)" class="st3" cx="43.5" cy="48.6" rx="9.3" ry="9.9"/>
		</g>
		<g>
			<ellipse transform="matrix(7.399780e-02 -0.9973 0.9973 7.399780e-02 -8.3891 90.0607)" cx="44.3" cy="49.5" rx="8.3" ry="7.8"/>
		</g>
		<g>
			<circle class="st3" cx="41.6" cy="43.6" r="2"/>
		</g>
	</g>
	<g>
		<g>
			
				<ellipse transform="matrix(0.9957 -9.273613e-02 9.273613e-02 0.9957 -3.9239 7.4755)" class="st3" cx="78.5" cy="46" rx="9.3" ry="9.9"/>
		</g>
		<g>
			
				<ellipse transform="matrix(7.399780e-02 -0.9973 0.9973 7.399780e-02 26.6528 122.5109)" cx="79.3" cy="46.9" rx="8.3" ry="7.8"/>
		</g>
		<g>
			<circle class="st3" cx="76.6" cy="40.9" r="2"/>
		</g>
	</g>
	<g>
		<path class="st2" d="M59.1,29.9c0,0-8.9-26.6,2.9-27.9c11.3-1.2-1.3,10,0.2,24.7c0.1,0.8,0.2,1.6,0.4,2.3c0.2,0.7,0.3,1.9-0.7,2.4
			C61.4,31.6,60.1,31.8,59.1,29.9z"/>
		<path class="st1" d="M61.2,32.3c-1,0-2.1-0.5-2.8-2.1l0-0.1c-0.3-0.8-6.1-18.7-1.4-26c1.2-1.8,2.8-2.8,5-3.1
			c2.7-0.3,4.2,0.1,5.1,1.1c1.3,1.6,0.3,4.3-1,8c-1.5,4.2-3.6,10-2.9,16.4c0.1,0.8,0.2,1.5,0.4,2.2c0.4,1.6,0,2.9-1.2,3.4
			C62,32.3,61.6,32.3,61.2,32.3z M59.9,29.6c0.6,1.2,1.3,1.2,1.7,1c0.5-0.2,0.3-1,0.2-1.4c-0.2-0.8-0.4-1.6-0.4-2.5
			c-0.7-6.7,1.4-12.7,3-17.1c1.1-2.9,2-5.5,1.3-6.4c-0.3-0.4-1.1-0.8-3.6-0.5c-1.7,0.2-2.9,0.9-3.8,2.3c-1.7,2.7-2,7.8-0.8,14.7
			C58.4,24.8,59.8,29,59.9,29.6z"/>
	</g>
	<g>
		<g>
			<path d="M56.9,62.5c1.3,1.8,3,3.7,5.5,3.3c2-0.3,3.8-3,4-4.9c0.2-1.2-1.6-1.7-1.8-0.5c-0.2,1.2-1.2,3.2-2.5,3.5
				c-1.6,0.4-2.8-1.3-3.6-2.4C57.8,60.6,56.2,61.5,56.9,62.5L56.9,62.5z"/>
		</g>
	</g>
</g>
</svg>
